<svg xmlns="http://www.w3.org/2000/svg" height="512" viewBox="0 0 58 50" width="512"><path d="M50.76 20.85c-.58 1.278-1.334 2.469-2.24 3.54-.646.812-1.373 1.555-2.17 2.22L27.37 44.46a2.01 2.01 0 0 1-2.74 0L3.48 24.39c-.906-1.071-1.66-2.262-2.24-3.54C-3.04 11.39 4.21 0 16.01 0c3.599-.02 7.107 1.135 9.99 3.29C28.883 1.135 32.391-.02 35.99 0c11.8 0 19.05 11.39 14.77 20.85z" fill="#df4d60"/><path d="M50.76 20.85C45.36 26.38 36.28 30 26 30S6.64 26.38 1.24 20.85C-3.04 11.39 4.21 0 16.01 0c3.599-.02 7.107 1.135 9.99 3.29C28.883 1.135 32.391-.02 35.99 0c11.8 0 19.05 11.39 14.77 20.85z" fill="#ff5364"/><path d="M12 5.6a1 1 0 0 1-.3-1.955A14.3 14.3 0 0 1 16.009 3a1 1 0 1 1 0 2 12.25 12.25 0 0 0-3.708.554A1.02 1.02 0 0 1 12 5.6zM6.72 23.04a1 1 0 0 1-.787-.383l-.181-.23a11.16 11.16 0 0 1-1.669-12.118A12.22 12.22 0 0 1 6.273 7.1a1 1 0 1 1 1.453 1.374A10.22 10.22 0 0 0 5.9 11.155c-1.567 3.32-1.013 7.254 1.41 10.012l.2.256a1 1 0 0 1-.79 1.617z" fill="#fb7b76"/><circle cx="42" cy="34" fill="#802f34" r="16"/><path d="M49 33h-6v-6a1 1 0 1 0-2 0v6h-6a1 1 0 1 0 0 2h6v6a1 1 0 1 0 2 0v-6h6a1 1 0 1 0 0-2z" fill="#ecf0f1"/></svg>