<svg xmlns="http://www.w3.org/2000/svg" xmlns:xlink="http://www.w3.org/1999/xlink" viewBox="0 0 469.3 469.3"><use xlink:href="#F" fill="#303c42"/><use xlink:href="#G" fill="#78909c"/><linearGradient id="A" gradientUnits="userSpaceOnUse" x1="271.7" y1="-102.4" x2="454.7" y2="290"><stop offset="0" stop-color="#fff" stop-opacity=".2"/><stop offset="1" stop-color="#fff" stop-opacity="0"/></linearGradient><use xlink:href="#G" fill="url(#A)"/><path d="M62 444a11 11 0 0 0-2.2 1.4 10 10 0 0 1-14-.5l-21.3-21.3c-2-2-3-4.7-3-7.5 0-2.2 1-4.3 2.6-6.5.5-.7 1-1.4 1.3-2.2l194-240.7c12.6 39.6 43.8 71 83.4 83.4L62 444z" fill="#37474f"/><path d="M33 418.5c.5-.7 1-1.4 1.3-2.2l190.3-236c-2-4.4-3.8-9-5.3-13.6l-194 240.7c-.3.8-.8 1.5-1.3 2.2-1.7 2-2.6 4.3-2.6 6.5 0 2.8 1 5.5 3 7.5l9 9c-2-2-3-4.7-3-7.5 0-2.2 1-4.3 2.6-6.5z" opacity=".1" fill="#fff"/><use xlink:href="#H" fill="#78909c"/><linearGradient id="B" gradientUnits="userSpaceOnUse" x1="225.2" y1="94.8" x2="374.5" y2="244.1"><stop offset="0" stop-opacity=".1"/><stop offset="1" stop-opacity="0"/></linearGradient><use xlink:href="#H" fill="url(#B)"/><path d="M195 259l-21.3 21.3c-4.2 4.2-4.2 11 0 15 2 2 4.8 3 7.5 3s5.5-1 7.5-3l21.3-21.3c4.2-4.2 4.2-11 0-15s-11-4.2-15 0z" fill="#e6e6e6"/><linearGradient id="C" gradientUnits="userSpaceOnUse" x1="-58" y1="611.2" x2="-56.3" y2="609.5" gradientTransform="matrix(21.3333 0 0 -21.3333 1430.1112 13315.2227)"><stop offset="0" stop-opacity=".1"/><stop offset="1" stop-opacity="0"/></linearGradient><path d="M210.2 259c4.2 4.2 4.2 11 0 15L189 295.5c-2 2-4.8 3-7.5 3s-5.5-1-7.5-3L206 328l40.3-32.5-36.2-36.2z" fill="url(#C)"/><path d="M397.4 169l26 26a106 106 0 0 0 24.5-67 106 106 0 0 0-29.7-73.5c5.4 12.8 8.4 26.8 8.4 41.5a106 106 0 0 1-29.2 73zm-154.2.8a107 107 0 0 0 98.1 64.9c25.6 0 48.7-9.4 67-24.5l-27-27a106 106 0 0 1-138.1-13.3z" opacity=".1"/><linearGradient id="D" gradientUnits="userSpaceOnUse" x1="104.1" y1="-55.7" x2="392.6" y2="562.8"><stop offset="0" stop-color="#fff" stop-opacity=".2"/><stop offset="1" stop-color="#fff" stop-opacity="0"/></linearGradient><use xlink:href="#F" fill="url(#D)"/><defs ><path id="F" d="M341.3 0a128 128 0 0 0-128 128c0 3.8.2 7.6.6 11.3L7 396c-.6.8-1 1.6-1.5 2.5A31 31 0 0 0 0 416c0 8.5 3.3 16.6 9.4 22.6L30.7 460c6 6 14 9.4 22.6 9.4a31 31 0 0 0 17.5-5.6c1-.4 1.8-1 2.6-1.5L330 255.4l11.3.6a128 128 0 0 0 128-128 128 128 0 0 0-128-128z"/><path id="G" d="M448 128c0 25.6-9.4 48.7-24.5 67L274.2 45.8c18.4-15 41.6-24.5 67-24.5A107 107 0 0 1 448 128z"/><path id="H" d="M234.7 128c0-25.6 9.4-48.7 24.5-67l149.3 149.3c-18.4 15-41.6 24.5-67 24.5A107 107 0 0 1 234.7 128z"/></defs></svg>