<svg xmlns="http://www.w3.org/2000/svg" viewBox="0 0 512 512"><path d="M183.518 82.833h15.716v72.176h-15.716z" fill="#47443b"/><path d="M440.393 70.969a7.86 7.86 0 0 1-7.858-7.858V9.095a7.86 7.86 0 0 1 7.858-7.858 7.86 7.86 0 0 1 7.858 7.858v54.016a7.86 7.86 0 0 1-7.858 7.858z" fill="#fee9b8"/><path d="M440.925 63.111V9.095c0-2.795 1.464-5.244 3.663-6.636-1.214-.769-2.651-1.222-4.195-1.222a7.86 7.86 0 0 0-7.858 7.858v54.016a7.86 7.86 0 0 0 7.858 7.858c1.544 0 2.981-.452 4.195-1.222-2.198-1.392-3.663-3.84-3.663-6.636z" fill="#e0c692"/><path d="M400.528 154.749V95.658l39.866-56.575 39.864 56.575v59.091 33.025 296.44h-79.73v-296.44" fill="#fee9b8"/><path d="M440.394 39.08l-14.48 56.577v383.318h-25.386V95.657z" fill="#e0c692"/><path d="M322.756 297.594H59.996l-32.211 31.919c-4.931 4.886-7.704 11.54-7.704 18.481V512h39.916 262.76 39.916V347.993c0-6.941-2.773-13.595-7.704-18.481l-32.213-31.918z" fill="#fee9b8"/><path d="M111.828 297.595l-24.171 39.551V512H20.08V347.993a26.02 26.02 0 0 1 7.705-18.482l32.213-31.917 51.83.001h0z" fill="#e0c692"/><path d="M343.324 248.744l-2.657 16.626c-5.485 18.769-17.912 32.224-17.912 32.224H59.996s-12.427-13.455-17.912-32.224l-2.657-16.626c-.086-8.227 1.628-16.797 6.256-25.453 19.968-37.109 145.693-91.358 145.693-91.358a.94.94 0 0 0 .343.172c7.371 3.17 125.981 55.278 145.35 91.186 4.627 8.656 6.341 17.226 6.255 25.453z" fill="#ef9e00"/><path d="M39.427 248.744l2.657 16.626c5.485 18.769 17.912 32.224 17.912 32.224h70.276c-10.541-14.055-21.34-35.566-21.34-64.276 0-44.393 76.36-97.185 82.102-101.214-7.371 3.17-125.981 55.278-145.35 91.186-4.628 8.657-6.342 17.227-6.257 25.454z" fill="#d38802"/><path d="M143.984 512v-93.092l47.391-48.238 47.393 48.238V512" fill="#47443b"/><path d="M215.067 74.362c-25.289 0-45.789-20.501-45.789-45.789A45.58 45.58 0 0 1 179.298.001c-23.808 5.48-41.568 26.79-41.568 52.263 0 29.628 24.018 53.646 53.646 53.646 25.473 0 46.783-17.76 52.264-41.568-7.834 6.265-17.762 10.02-28.573 10.02z" fill="#fcd441"/><path d="M480.65 478.974h-80.514c-6.225 0-11.27 5.046-11.27 11.27V512h103.055v-21.756c0-6.224-5.046-11.27-11.271-11.27z" fill="#e8bc98"/><path d="M415.925,478.974h-15.789c-6.225,0-11.27,5.046-11.27,11.27V512h27.059V478.974z" fill="#d4a77d"/><path d="M485.094 154.749h-89.402a6.83 6.83 0 0 0-6.826 6.826v19.373a6.83 6.83 0 0 0 6.826 6.826h89.402a6.83 6.83 0 0 0 6.826-6.826v-19.373c.001-3.77-3.056-6.826-6.826-6.826z" fill="#e8bc98"/><path d="M415.925 154.749h-20.234a6.83 6.83 0 0 0-6.826 6.826v19.373a6.83 6.83 0 0 0 6.826 6.826h20.234v-33.025z" fill="#d4a77d"/><path d="M458.746 125.203l-18.352-14.197-18.353 14.197v29.546h36.705zM324.698 366.336l-26.901-20.81-26.901 20.81v43.308h53.802zm-212.843 0l-26.901-20.81-26.902 20.81v43.308h53.803z" fill="#47443b"/></svg>