<svg xmlns="http://www.w3.org/2000/svg" viewBox="0 0 512 512"><path d="M256,0C114.833,0,0,114.844,0,256s114.833,256,256,256s256-114.844,256-256S397.167,0,256,0z" fill="#303c42"/><path d="M256 490.667C126.604 490.667 21.333 385.396 21.333 256S126.604 21.333 256 21.333 490.667 126.604 490.667 256 385.396 490.667 256 490.667z" fill="#e6e6e6"/><path d="M202.667 362.667c-1.75 0-3.521-.438-5.104-1.302C194.125 359.49 192 355.906 192 352V160c0-3.906 2.125-7.49 5.563-9.365a10.64 10.64 0 0 1 10.875.396l149.333 96c3.042 1.958 4.896 5.344 4.896 8.969s-1.854 7.01-4.896 8.969l-149.333 96a10.62 10.62 0 0 1-5.771 1.698z" fill="#303c42"/><path d="M213.333 179.542v152.916L332.271 256z" fill="#78909c"/><path d="M213.333 256v76.458L332.271 256z" opacity=".1"/><linearGradient id="A" gradientUnits="userSpaceOnUse" x1="-34.243" y1="632.742" x2="-27.58" y2="626.075" gradientTransform="matrix(21.3333 0 0 -21.3333 996.3334 13791.667)"><stop offset="0" stop-opacity=".1"/><stop offset="1" stop-opacity="0"/></linearGradient><path d="M362.314 253.301l-.289.19c.214.844.642 1.618.642 2.509 0 3.625-1.854 7.01-4.896 8.969l-149.333 96a10.62 10.62 0 0 1-5.771 1.698c-1.75 0-3.521-.438-5.104-1.302l120.663 120.663c65.57-18.082 119.585-63.87 148.788-124.027l-104.7-104.7z" fill="url(#A)"/><linearGradient id="B" gradientUnits="userSpaceOnUse" x1="23.994" y1="-241.579" x2="488.01" y2="753.621"><stop offset="0" stop-color="#fff" stop-opacity=".2"/><stop offset="1" stop-color="#fff" stop-opacity="0"/></linearGradient><path d="M256,0C114.833,0,0,114.844,0,256s114.833,256,256,256s256-114.844,256-256S397.167,0,256,0z" fill="url(#B)"/></svg>