<svg xmlns="http://www.w3.org/2000/svg" xmlns:xlink="http://www.w3.org/1999/xlink" height="512" width="512"><style><![CDATA[.E{fill:#c86d36}.F{fill:#d77f4a}]]></style><path d="M111.516 453.032c.478-14.843 4.209-58.545 30.629-95.225 0 0 30.926 46.512 32.358 94.847.083 2.806-2.193 5.12-5 5.142l-52.91.423c-2.859.023-5.169-2.33-5.077-5.188z" fill="#838383"/><path d="M142.145 357.807c-3.922 5.445-7.333 11.045-10.318 16.681 4.648 18.588 10.888 48.576 11.772 78.413.083 2.806-2.193 5.12-5 5.142l30.904-.247c2.807-.022 5.083-2.336 5-5.142-1.432-48.335-32.358-94.847-32.358-94.847zM418.896 93.549c-67.5-67.686-177.482-67.835-245.166-.336s-67.835 177.482-.336 245.166 177.482 67.835 245.166.336 67.836-177.481.336-245.166zM184.015 327.788c-61.66-61.829-61.522-162.294.307-223.953s162.294-61.522 223.953.307 61.522 162.294-.307 223.953-162.293 61.522-223.953-.307z" fill="#5a5a5a"/><circle cx="362.038" cy="-225.591" r="30.905" transform="rotate(45.078)" class="F"/><path d="M437.267 75.229c-3.976-3.987-8.773-6.653-13.847-8.015 2.737 10.313.062 21.762-8.036 29.838s-19.555 10.72-29.861 7.955c1.348 5.077 4 9.881 7.977 13.869 12.053 12.086 31.621 12.112 43.706.06s12.114-31.621.061-43.707z" class="E"/><g transform="rotate(45.078)" class="F"><circle cx="298.394" cy="93.756" r="30.905"/><circle cx="209.795" cy="4.619" r="30.905"/></g><use xlink:href="#A" class="E"/><circle cx="242.885" cy="59.456" r="30.905" transform="rotate(45.078)" class="F"/><g class="E"><use xlink:href="#A" x="-15.463" y="62.153"/><use xlink:href="#A" x="-.553" y="125.678"/></g><circle cx="298.394" cy="-210.68" fill="#d67b42" r="30.905" transform="rotate(45.078)"/><use xlink:href="#A" x="215.011" y="-89.296" class="E"/><circle cx="209.795" cy="-121.542" r="30.905" transform="rotate(45.078)" class="F"/><use xlink:href="#A" x="89.332" y="-89.087" class="E"/><circle cx="242.885" cy="-176.38" r="30.905" transform="rotate(45.078)" class="F"/><use xlink:href="#A" x="151.527" y="-104.38" class="E"/><circle cx="425.682" cy="93.756" r="30.905" transform="rotate(45.078)" class="F"/><use xlink:href="#A" x="89.33" y="215.807" class="E"/><circle cx="196.179" cy="-57.192" r="30.905" transform="rotate(45.078)" class="F"/><use xlink:href="#A" x="34.152" y="-53.289" class="E"/><circle cx="527.897" cy="-57.192" r="30.905" transform="rotate(45.078)" class="F"/><use xlink:href="#B" class="E"/><circle cx="514.281" cy="4.619" r="30.905" transform="rotate(45.078)" class="F"/><use xlink:href="#A" x="215.009" y="215.598" class="E"/><circle cx="481.191" cy="59.456" r="30.905" transform="rotate(45.078)" class="F"/><use xlink:href="#B" x="-115.577" y="49.299" class="E"/><circle cx="425.682" cy="-210.68" r="30.905" transform="rotate(45.078)" class="F"/><use xlink:href="#A" x="304.893" y=".834" class="E"/><circle cx="514.281" cy="-121.542" r="30.905" transform="rotate(45.078)" class="F"/><use xlink:href="#A" x="304.341" y="126.511" class="E"/><circle cx="481.191" cy="-176.38" r="30.905" transform="rotate(45.078)" class="F"/><use xlink:href="#B" x="51.412" y="-117.233" class="E"/><path d="M200.098 279.988l20.911 4.394a8.42 8.42 0 0 1 6.513 6.531l4.336 20.923a18.61 18.61 0 0 1-5.081 16.954l-39.358 39.251c-6.468 6.45-15.178 10.151-24.31 10.329l-21.632.423a8.42 8.42 0 0 1-8.582-8.605l.482-21.631c.203-9.131 3.928-17.831 10.396-24.281l39.358-39.251c4.443-4.434 10.822-6.327 16.966-5.037z" fill="#8379c1"/><path d="M231.859 311.836l-4.336-20.923a8.42 8.42 0 0 0-6.513-6.531l-12.681-2.664 1.706 8.235a18.61 18.61 0 0 1-5.081 16.954l-39.358 39.251c-6.468 6.45-15.178 10.151-24.31 10.329l-8.09.159-.302 13.543a8.42 8.42 0 0 0 8.582 8.605l21.632-.423a35.41 35.41 0 0 0 24.31-10.329l39.358-39.251a18.61 18.61 0 0 0 5.083-16.955z" fill="#6e61b6"/><defs><path id="A" d="M166.757 129.989c-3.976-3.987-8.773-6.653-13.847-8.015 2.737 10.313.062 21.762-8.037 29.839s-19.555 10.72-29.861 7.955c1.348 5.077 4 9.881 7.977 13.869 12.053 12.086 31.621 12.112 43.706.06s12.114-31.622.061-43.708z"/><path id="B" d="M435.148 311.581c-3.976-3.987-8.773-6.653-13.847-8.015 2.737 10.313.062 21.762-8.037 29.839s-19.555 10.72-29.861 7.955a30.76 30.76 0 0 0 7.977 13.869c12.053 12.086 31.621 12.112 43.706.06s12.114-31.622.061-43.708z"/></defs></svg>