<svg xmlns="http://www.w3.org/2000/svg" xmlns:xlink="http://www.w3.org/1999/xlink" height="512" width="512"><path d="M212 70c0-33.2-42.8-60-76-60S76 36.8 76 70v432h300V130z" fill="#ccffb3"/><path d="M136 70v30c0 16.6 13.4 30 30 30s30-13.4 30-30V70z" fill="#9affbc"/><path d="M136 10h240s60 26.863 60 60v30c0 16.569-13.432 30-30 30H166c16.6 0 30-13.4 30-30V70c0-33.2-26.8-60-60-60" fill="#fff"/><g fill="#53d0a6"><path d="M446 70c0-38.598-31.402-70-70-70H136C97.402 0 66 31.402 66 70v432c0 5.522 4.478 10 10 10h300c5.522 0 10-4.478 10-10V140h20c22.056 0 40-17.944 40-40zm-80 422H86V70c0-27.57 22.43-50 50-50 24.146 0 44.348 17.205 48.994 40H136c-5.522 0-10 4.477-10 10v30c0 22.056 17.944 40 40 40h200zM146 100V80h40v20c0 11.028-8.972 20-20 20s-20-8.972-20-20zm280 0c0 11.028-8.972 20-20 20H200.619A39.74 39.74 0 0 0 206 100V70c0-19.572-8.084-37.284-21.077-50H376c27.57 0 50 22.43 50 50zm-300 96c0 5.523 4.478 10 10 10h80c5.522 0 10-4.477 10-10s-4.478-10-10-10h-80c-5.522 0-10 4.477-10 10zm150 10h40c5.522 0 10-4.477 10-10s-4.478-10-10-10h-40c-5.522 0-10 4.477-10 10s4.478 10 10 10z"/><use xlink:href="#B"/><use xlink:href="#B" y="60"/><use xlink:href="#B" y="120"/><path d="M316 426h-80c-5.522 0-10 4.477-10 10s4.478 10 10 10h80c5.522 0 10-4.477 10-10s-4.478-10-10-10zm-140 0h-40c-5.522 0-10 4.477-10 10s4.478 10 10 10h40c5.522 0 10-4.477 10-10s-4.478-10-10-10z"/></g><defs ><path id="B" d="M316 246H136c-5.522 0-10 4.477-10 10s4.478 10 10 10h180c5.522 0 10-4.477 10-10s-4.478-10-10-10z"/></defs></svg>