<svg xmlns="http://www.w3.org/2000/svg" height="512" width="512"><path d="M443.76 329.006l64.869-64.869a11.51 11.51 0 0 0 0-16.274l-64.869-64.869c-2.158-2.158-3.37-5.085-3.37-8.137V83.118a11.51 11.51 0 0 0-11.508-11.508h-91.739c-3.052 0-5.979-1.212-8.137-3.37L264.137 3.37a11.51 11.51 0 0 0-16.274 0l-64.869 64.87c-2.158 2.158-5.085 3.37-8.137 3.37H83.118A11.51 11.51 0 0 0 71.61 83.118v91.739c0 3.052-1.212 5.979-3.37 8.137L3.371 247.863a11.51 11.51 0 0 0 0 16.274l64.869 64.869c2.158 2.158 3.37 5.085 3.37 8.137v91.739a11.51 11.51 0 0 0 11.508 11.508h91.739c3.052 0 5.979 1.212 8.137 3.37l64.869 64.869a11.51 11.51 0 0 0 16.274 0l64.869-64.869c2.158-2.158 5.085-3.37 8.137-3.37h91.739a11.51 11.51 0 0 0 11.508-11.508v-91.739c0-3.052 1.212-5.979 3.37-8.137z" fill="#6ed5a1"/><path d="M316.209 440.389h20.936a11.55 11.55 0 0 0-8.143 3.371l-64.868 64.868a11.5 11.5 0 0 1-16.266 0l-2.33-2.33 62.539-62.539a11.51 11.51 0 0 1 8.132-3.37zM329.001 68.24c2.165 2.154 5.092 3.371 8.143 3.371h-20.936a11.51 11.51 0 0 1-8.133-3.371L245.537 5.701l2.33-2.33a11.5 11.5 0 0 1 16.266 0zm179.627 195.893l-64.868 64.868c-2.154 2.165-3.371 5.092-3.371 8.143v91.741a11.51 11.51 0 0 1-11.504 11.504H407.95a11.51 11.51 0 0 0 11.504-11.504v-95.344c0-3.051 1.216-5.979 3.371-8.143l60.266-61.265a11.5 11.5 0 0 0 0-16.266l-60.266-60.039c-2.154-2.165-3.371-5.092-3.371-8.143V83.114A11.51 11.51 0 0 0 407.95 71.61h20.936a11.51 11.51 0 0 1 11.504 11.504v91.741c0 3.051 1.216 5.979 3.371 8.143l64.868 64.868a11.5 11.5 0 0 1-.001 16.267z" fill="#46cc8d"/><path d="M401.162 311.362l47.225-47.225a11.51 11.51 0 0 0 0-16.274l-47.225-47.225c-2.158-2.158-3.37-5.085-3.37-8.137v-66.785a11.51 11.51 0 0 0-11.508-11.508h-66.785c-3.052 0-5.979-1.212-8.137-3.37l-47.224-47.225a11.51 11.51 0 0 0-16.274 0l-47.224 47.225c-2.158 2.158-5.085 3.37-8.137 3.37h-66.785a11.51 11.51 0 0 0-11.508 11.508v66.785c0 3.052-1.212 5.979-3.37 8.137l-47.224 47.225a11.51 11.51 0 0 0 0 16.274l47.224 47.225c2.158 2.158 3.37 5.085 3.37 8.137v66.785a11.51 11.51 0 0 0 11.508 11.508h66.785c3.052 0 5.979 1.212 8.137 3.37l47.224 47.225a11.51 11.51 0 0 0 16.274 0l47.224-47.225c2.158-2.158 5.085-3.37 8.137-3.37h66.785a11.51 11.51 0 0 0 11.508-11.508v-66.785c-.001-3.052 1.212-5.979 3.37-8.137z" fill="#e2f6eb"/><path d="M291.82 397.786h27.677c-3.051 0-5.979 1.216-8.133 3.371l-47.231 47.231a11.5 11.5 0 0 1-16.266 0l-5.711-5.711 41.521-41.521c2.165-2.153 5.092-3.37 8.143-3.37zm19.544-286.943a11.51 11.51 0 0 0 8.133 3.371H291.82c-3.051 0-5.979-1.216-8.143-3.371l-41.521-41.521 5.711-5.711a11.5 11.5 0 0 1 16.266 0zm137.024 153.29l-47.231 47.231a11.51 11.51 0 0 0-3.371 8.133v66.786a11.5 11.5 0 0 1-11.504 11.504h-20.76c6.35 0 11.504-5.144 11.504-11.504v-74.547c0-3.051 1.216-5.979 3.371-8.133l42.098-39.469a11.5 11.5 0 0 0 0-16.266l-42.098-38.913a11.51 11.51 0 0 1-3.371-8.133v-75.104c0-6.36-5.154-11.504-11.504-11.504h20.76a11.5 11.5 0 0 1 11.504 11.504v66.786c0 3.051 1.216 5.979 3.371 8.133l47.231 47.231c4.495 4.493 4.495 11.771 0 16.265z" fill="#ceefdd"/><path d="M364.491 296.2c-16.214 42.668-57.487 72.991-105.846 72.991-62.513 0-113.191-50.678-113.191-113.191s50.678-113.191 113.191-113.191l2.752.032c-31.395 15.045-53.068 47.119-53.068 84.251 0 51.57 41.802 93.372 93.372 93.372 24.173 0 46.208-9.186 62.79-24.264z" fill="#fece85"/><path d="M364.491 296.197a112.14 112.14 0 0 1-12.5 23.822c-15.525 8.596-33.649 13.523-52.987 13.523-57.57 0-104.244-43.667-104.244-97.533 0-36.04 20.896-67.516 51.964-84.399-23.278 16.983-38.395 44.473-38.395 75.486 0 51.565 41.801 93.366 93.375 93.366 24.175 0 46.203-9.184 62.787-24.265z" fill="#fec165"/><path d="M302.085 176.749l10.157 20.58c.566 1.146 1.659 1.94 2.924 2.124l22.711 3.3c3.185.463 4.457 4.377 2.152 6.624l-16.434 16.019c-.915.892-1.333 2.177-1.117 3.437l3.879 22.619c.544 3.172-2.786 5.591-5.634 4.094l-20.313-10.679a3.88 3.88 0 0 0-3.614 0l-20.313 10.679c-2.849 1.498-6.178-.921-5.634-4.094l3.879-22.619c.216-1.26-.202-2.545-1.117-3.437l-16.434-16.019c-2.305-2.247-1.033-6.161 2.152-6.624l22.711-3.3c1.265-.184 2.358-.978 2.924-2.124l10.157-20.58c1.424-2.886 5.54-2.886 6.964 0z" fill="#fece85"/><path d="M323.592 225.393c-.915.897-1.331 2.183-1.114 3.442l3.877 22.617c.543 3.17-2.781 5.588-5.634 4.094l-12.056-6.34c0-.199-.018-.417-.054-.634l-4.212-24.519a4.24 4.24 0 0 1 1.214-3.723l17.817-17.363a4.18 4.18 0 0 0 1.186-2.147l13.26 1.929c3.188.462 4.456 4.384 2.156 6.63z" fill="#fec165"/></svg>