<svg xmlns="http://www.w3.org/2000/svg" height="512" width="512"><linearGradient id="A" gradientUnits="userSpaceOnUse" x1="256" x2="256" y1=".028" y2="511.972"><stop offset="0" stop-color="#8df49b"/><stop offset="1" stop-color="#589cf9"/></linearGradient><path d="M458 157.384V52.972H339.507l-43.081-38.03c-22.521-19.832-56.543-19.894-79.146-.139L0 204.896v52.076h40v195c0 33.084 26.916 60 60 60h122v-148h70v148h120c33.084 0 60-26.916 60-60v-195h40v-52.038zm-26 294.588c0 11.028-8.972 20-20 20h-80v-148H182v148h-82c-11.028 0-20-8.972-20-20v-195h352zm-385.055-235L243.611 44.914c7.532-6.583 18.872-6.563 26.362.032L378 140.308V92.972h40v82.487l47.144 41.513z" fill="url(#A)"/></svg>