<svg xmlns="http://www.w3.org/2000/svg" xmlns:xlink="http://www.w3.org/1999/xlink" height="512" width="512"><path d="M506.229 188.707c-12.313-12.313-32.651-10.97-43.238 2.855L449.026 209.8l-.031-.021V58.623c0-12-9.728-21.727-21.727-21.727s-21.727 9.728-21.727 21.727V21.727c0-12-9.728-21.727-21.727-21.727s-21.727 9.728-21.727 21.727v36.895c0-12-9.728-21.727-21.727-21.727s-21.727 9.728-21.727 21.727v55.443c0-12-9.728-21.727-21.727-21.727s-21.727 9.728-21.727 21.727V232.4a48.95 48.95 0 0 0 10.974 30.886l15.709 19.315c7.099 8.728 10.974 19.635 10.974 30.886v27.181h135.422v-32.875c0-10.463 3.353-20.651 9.566-29.069l50.07-67.837c5.006-6.786 4.3-16.216-1.665-22.18z" fill="#fed2a4"/><g fill="#ffbd86"><use xlink:href="#B"/><use xlink:href="#C"/><path d="M318.577 183.842v-70.195c0-12.004-9.729-21.723-21.723-21.723a21.48 21.48 0 0 0-10.244 2.574c6.826 3.655 11.469 10.851 11.469 19.149v51.514c0 10.317 8.364 18.681 18.681 18.681zm189.319 27.044l-50.077 67.836c-6.208 8.422-9.564 18.604-9.564 29.074v32.873h-24.977v-32.873c0-10.47 3.346-20.653 9.564-29.074l50.066-67.836c5.014-6.785 4.304-16.215-1.658-22.176a28.64 28.64 0 0 0-7.886-5.601c10.625-5.096 23.875-3.387 32.863 5.601 5.962 5.96 6.672 15.391 1.669 22.176z"/></g><path d="M5.771 188.707c12.313-12.313 32.651-10.97 43.238 2.855L62.974 209.8l.031-.021V58.623c0-12 9.728-21.727 21.727-21.727s21.727 9.728 21.727 21.727V21.727c0-12 9.728-21.727 21.727-21.727s21.727 9.728 21.727 21.727v36.895c0-12 9.728-21.727 21.727-21.727s21.727 9.728 21.727 21.727v55.443c0-12 9.728-21.727 21.727-21.727s21.727 9.728 21.727 21.727V232.4a48.95 48.95 0 0 1-10.974 30.886l-15.709 19.315c-7.099 8.728-10.974 19.635-10.974 30.886v27.181H63.745v-32.875c0-10.463-3.353-20.651-9.566-29.069l-50.07-67.837a17.05 17.05 0 0 1 1.662-22.18z" fill="#fed2a4"/><g fill="#ffbd86"><path d="M111.248 248.528a10.32 10.32 0 0 1-3.653 10.508l-3.289 2.585c-3.23 2.522-7.992 1.672-10.04-1.878-5.885-10.196-15.947-12.85-23.196-13.311-1.866-.119-3.609-.959-4.822-2.382l-33.36-39.126a40.28 40.28 0 0 0-14.733-10.882l-.09-.039c-5.906-2.543-5.359-11.226.87-12.827 10.77-2.767 22.756.822 30.075 10.384l24.516 32.015c1.387 1.811 3.582 2.802 5.858 2.655 7.882-.509 26.691.65 31.864 22.298zM448.996 59.153c0-12.021-9.534-22.162-21.555-22.259-3.856-.031-7.481.94-10.639 2.686 6.712 3.696 11.253 10.841 11.253 19.047v143.682a16.19 16.19 0 0 1-3.337 9.755c-3.06 3.995-7.732 6.488-12.762 6.635-9.403.275-24.953 4.012-28.609 25.036-.428 2.461.548 4.964 2.511 6.507l4.981 3.914.069.054c3.192 2.496 7.912 1.663 9.926-1.852 4.424-7.723 11.238-11.144 17.436-12.561 6.513-1.489 12.311-5.185 16.646-10.27l10.207-11.971a16.19 16.19 0 0 0 3.871-10.511l-.001-4.733.003-.003zm-212.168 54.915v118.335c0 11.253-3.881 22.156-10.975 30.886l-15.711 19.314a48.92 48.92 0 0 0-10.975 30.886v27.18h-20.364v-27.18c0-11.253 3.881-27.833 10.975-36.563l15.711-19.314a48.92 48.92 0 0 0 10.975-30.886V114.068a21.67 21.67 0 0 0-6.363-15.371c-1.524-1.524-3.264-2.821-5.179-3.83a21.58 21.58 0 0 1 10.172-2.533 21.67 21.67 0 0 1 15.371 6.363c3.933 3.932 6.363 9.368 6.363 15.371z"/><use xlink:href="#B" x="-255.625"/><use xlink:href="#C" x="-168.663"/><use xlink:href="#C" x="-255.626"/></g><path d="M208.863 512H53.429V327.751a7.94 7.94 0 0 1 7.94-7.94h139.555a7.94 7.94 0 0 1 7.94 7.94V512zm93.961 0h155.434V327.751a7.94 7.94 0 0 0-7.94-7.94H310.764a7.94 7.94 0 0 0-7.94 7.94z" fill="#a6e7f0"/><path d="M458.262 327.749v184.247h-20.725V327.749c0-4.386-3.562-7.938-7.948-7.938h20.735c4.375 0 7.938 3.552 7.938 7.938zm-249.399 0v184.247h-20.725V327.749c0-4.386-3.562-7.938-7.948-7.938h20.735c4.376 0 7.938 3.552 7.938 7.938z" fill="#6bd9e7"/><g fill="#54cdd6"><circle cx="173.617" cy="373.583" r="10.295"/><circle cx="173.617" cy="412.114" r="10.295"/><circle cx="338.07" cy="373.583" r="10.295"/><circle cx="338.07" cy="412.114" r="10.295"/></g><defs ><path id="B" d="M405.539 183.842V21.728c0-12.004-9.729-21.723-21.723-21.723a21.48 21.48 0 0 0-10.244 2.574c6.826 3.655 11.469 10.851 11.469 19.149V165.16c0 10.317 8.364 18.681 18.681 18.681h1.817z"/><path id="C" d="M362.086 183.842V58.617c0-12.004-9.729-21.723-21.723-21.723a21.48 21.48 0 0 0-10.244 2.574c6.826 3.655 11.469 10.851 11.469 19.149V165.16c0 10.317 8.364 18.681 18.681 18.681h1.817z"/></defs></svg>