<svg xmlns="http://www.w3.org/2000/svg" height="682.667" viewBox="0 -86 512 512" width="682.667"><path d="M256 105.301v27.328L42.684 22.047 53.18 3.875A7.74 7.74 0 0 1 61.77.234l99.484 24.922c42.289 10.598 77.281 40.195 94.746 80.145zm0 0" fill="#ebe1dc"/><path d="M256 161.637L17.652 38.082a5.99 5.99 0 0 1-2.559-8.07l6.344-12.234c1.523-2.934 5.133-4.082 8.07-2.559L256 132.629zm0 0" fill="#a4f7c5"/><path d="M496.906 30.012l-6.344-12.234c-1.523-2.934-5.133-4.082-8.07-2.559L276.945 121.77v29.008L494.348 38.082c2.934-1.52 4.082-5.133 2.559-8.07zm0 0" fill="#7af4ab"/><path d="M256 219.363L62.25 340.277c-.844.531-1.961.199-2.383-.707a37.95 37.95 0 0 1 11.875-46.504l12.102-8.937a46.84 46.84 0 0 0 15.066-27.457c1.516-9.344 7.367-17.422 15.77-21.777l90.793-47.066zM509.309 38.441l-.199-.352c-1.906-3.297-6.066-4.516-9.449-2.762L276.945 150.777v21.715l29.582 15.336 196.031-122.34a20.06 20.06 0 0 0 6.75-27.047zm0 0" fill="#c97e67"/><path d="M256 219.363L9.441 65.488a20.06 20.06 0 0 1-6.75-27.047l.199-.352c1.906-3.297 6.066-4.516 9.449-2.762L256 161.637zm184.258 73.703l-12.102-8.937a46.82 46.82 0 0 1-15.066-27.457c-1.516-9.344-7.367-17.422-15.77-21.777l-120.375-62.402v59.941L449.75 340.277c.844.531 1.961.199 2.383-.707a37.95 37.95 0 0 0-11.875-46.504zm0 0" fill="#d29380"/><path d="M273.355 67.762a147.12 147.12 0 0 0-11.348 15.441c-3.98 6.223-6.008 13.496-6.008 20.883v188.016a1.05 1.05 0 0 0 1.68.832l5.723-4.344a5.08 5.08 0 0 1 6.145 0l5.723 4.344c.688.523 1.676.035 1.676-.832V69.082c0-1.891-2.371-2.77-3.59-1.32zm0 0" fill="#ff94d2"/><path d="M276.945 121.77l192.371-99.719L458.82 3.875c-1.727-2.996-5.234-4.48-8.59-3.641L350.746 25.16c-29.207 7.316-54.926 23.699-73.801 46.293zM256 119.082c-30.195-41.277-73.676-70.617-123.57-83.117a7.73 7.73 0 0 0-9.375 5.617c-1.035 4.137 1.477 8.336 5.617 9.371 45.027 11.281 84.43 37.309 112.375 73.922L256 132.629zm0 0" fill="#dcd2cd"/><path d="M276.945 114.621c27.023-29.406 61.77-50.074 100.508-59.781 4.141-1.039 6.656-5.234 5.617-9.371s-5.23-6.656-9.371-5.617c-36.426 9.125-69.57 27.262-96.754 52.809zm0 0" fill="#c8beb9"/></svg>