<svg xmlns="http://www.w3.org/2000/svg" viewBox="0 0 512 512"><path d="M256 512l-74.98-74.98H74.98V330.98L0 256l74.98-74.98V74.98h106.04L256 0l74.98 74.98h106.04v106.04L512 256l-74.98 74.98v106.04H330.98L256 512z" fill="#edc472"/><path d="M437.02 181.02V74.98H330.98L256 0v512l74.98-74.98h106.04V330.98L512 256z" fill="#e8ba64"/><path d="M104.99 407.01h88.46L256 469.561l62.55-62.551h88.46v-88.46L469.561 256l-62.551-62.55v-88.46h-88.46L256 42.439l-62.55 62.551h-88.46v88.46L42.439 256l62.551 62.55z" fill="#ffde91"/><path d="M407.01 193.45v-88.46h-88.46L256 42.439v427.122l62.55-62.551h88.46v-88.46L469.561 256z" fill="#fad17f"/><path d="M256 427.12L205.88 377h-70.881v-70.88L84.88 256 135 205.88v-70.881h70.881L256 84.88 306.12 135h70.881v70.881L427.12 256 377 306.12v70.881h-70.88L256 427.12z" fill="#ffac5a"/><path d="M377.001 205.88v-70.881H306.12L256 84.88v342.24l50.12-50.119h70.881V306.12L427.12 256z" fill="#fc9942"/><path d="M165.009 346.991h53.301l37.69 37.69 37.69-37.69h53.301V293.69l37.69-37.69-37.69-37.69v-53.301H293.69L256 127.319l-37.69 37.69h-53.301v53.301L127.319 256l37.69 37.69z" fill="#ffcf94"/><path d="M346.991 218.31v-53.301H293.69L256 127.319v257.362l37.69-37.69h53.301V293.69l37.69-37.69z" fill="#ffc170"/></svg>