<svg xmlns="http://www.w3.org/2000/svg" xmlns:xlink="http://www.w3.org/1999/xlink" viewBox="0 0 512 512"><path d="M256,0C114.833,0,0,114.844,0,256s114.833,256,256,256s256-114.844,256-256S397.167,0,256,0z" fill="#303c42"/><path d="M256 490.667C126.604 490.667 21.333 385.396 21.333 256S126.604 21.333 256 21.333 490.667 126.604 490.667 256 385.396 490.667 256 490.667z" fill="#e6e6e6"/><linearGradient id="A" gradientUnits="userSpaceOnUse" x1="151.929" y1="358.835" x2="318.35" y2="525.256"><stop offset="0" stop-opacity=".1"/><stop offset="1" stop-opacity="0"/></linearGradient><path d="M151.951 358.794l-.043.043.22.22z" fill="url(#A)"/><linearGradient id="B" gradientUnits="userSpaceOnUse" x1="255.321" y1="255.443" x2="421.742" y2="421.864"><stop offset="0" stop-opacity=".1"/><stop offset="1" stop-opacity="0"/></linearGradient><use xlink:href="#G" fill="url(#B)"/><linearGradient id="C" gradientUnits="userSpaceOnUse" x1="-39.581" y1="629.665" x2="-39.571" y2="629.654" gradientTransform="matrix(21.3333 0 0 -21.3333 996.3334 13791.667)"><stop offset="0" stop-opacity=".1"/><stop offset="1" stop-opacity="0"/></linearGradient><path d="M151.951 358.794l-.043.043.22.22z" fill="url(#C)"/><linearGradient id="D" gradientUnits="userSpaceOnUse" x1="-34.684" y1="634.462" x2="-26.936" y2="626.709" gradientTransform="matrix(21.3333 0 0 -21.3333 996.3334 13791.667)"><stop offset="0" stop-opacity=".1"/><stop offset="1" stop-opacity="0"/></linearGradient><use xlink:href="#G" fill="url(#D)"/><path d="M352 362.667H160c-5.896 0-10.667-4.771-10.667-10.667V160c0-5.896 4.771-10.667 10.667-10.667h192c5.896 0 10.667 4.771 10.667 10.667v192c0 5.896-4.771 10.667-10.667 10.667z" fill="#303c42"/><g fill="#78909c"><path d="M170.667 170.667h170.667v170.667H170.667z"/><path d="M170.667 170.667h170.667v170.667H170.667z"/></g><linearGradient id="E" gradientUnits="userSpaceOnUse" x1="23.994" y1="-241.579" x2="488.01" y2="753.621"><stop offset="0" stop-color="#fff" stop-opacity=".2"/><stop offset="1" stop-color="#fff" stop-opacity="0"/></linearGradient><path d="M256,0C114.833,0,0,114.844,0,256s114.833,256,256,256s256-114.844,256-256S397.167,0,256,0z" fill="url(#E)"/><defs ><path id="G" d="M360.296 153.57c1.4 1.805 2.371 3.966 2.371 6.43v192c0 5.896-4.771 10.667-10.667 10.667H160c-2.736 0-5.171-1.104-7.057-2.794l129.241 129.241c108.438-12.108 194.714-98.34 206.902-206.754l-128.79-128.79z"/></defs></svg>