<svg xmlns="http://www.w3.org/2000/svg" xmlns:xlink="http://www.w3.org/1999/xlink" height="512" viewBox="0 0 74 74" width="512"><circle cx="39.008" cy="8.625" fill="#eeefee" r="4.625"/><circle cx="30.613" cy="10.847" fill="#fe7058" r="4.048"/><g fill="#eeefee"><circle cx="24.342" cy="15.967" r="4.048"/><circle cx="20.096" cy="22.992" r="4.048"/><circle cx="23.35" cy="30.414" r="4.048"/><circle cx="26.128" cy="37.994" r="4.048"/><circle cx="24.938" cy="46.091" r="4.048"/></g><path d="M43.63 8.62a4.626 4.626 0 0 1-1.79 3.66 4.574 4.574 0 0 0 .34-1.74 4.624 4.624 0 0 0-7.47-3.64 4.627 4.627 0 0 1 8.92 1.72zm-8.97 2.23a4.021 4.021 0 0 1-1.7 3.29 3.717 3.717 0 0 0 .25-1.38 4.044 4.044 0 0 0-4.05-4.04 3.946 3.946 0 0 0-2.36.77 4.047 4.047 0 0 1 7.86 1.36zm-6.27 5.12a4.007 4.007 0 0 1-1.69 3.28 3.91 3.91 0 0 0 .24-1.37 4.044 4.044 0 0 0-4.05-4.04 3.945 3.945 0 0 0-2.36.77 4.047 4.047 0 0 1 7.86 1.36zm-4.25 7.02a4.039 4.039 0 0 1-1.7 3.3 3.972 3.972 0 0 0 .25-1.38 4.044 4.044 0 0 0-6.39-3.3 4.04 4.04 0 0 1 7.84 1.38zm3.26 7.42a4.071 4.071 0 0 1-1.69 3.3 3.966 3.966 0 0 0 .24-1.38 4.046 4.046 0 0 0-4.05-4.05 4.005 4.005 0 0 0-2.36.76 4.051 4.051 0 0 1 7.86 1.37zm2.78 7.58a4.034 4.034 0 0 1-1.69 3.28 3.854 3.854 0 0 0 .24-1.36 4.059 4.059 0 0 0-4.05-4.05 3.954 3.954 0 0 0-2.36.78 4.047 4.047 0 0 1 7.86 1.35zm-1.19 8.1a4.038 4.038 0 0 1-1.69 3.29 4.152 4.152 0 0 0 .24-1.37 4.052 4.052 0 0 0-6.4-3.3 4.045 4.045 0 0 1 7.85 1.38z" fill="#d5d6db"/><g fill="#eeefee"><circle cx="37.082" cy="54.187" r="4.048"/><circle cx="44.702" cy="51.171" r="4.048"/><circle cx="50.765" cy="45.615" r="4.048"/><circle cx="55.352" cy="38.892" r="4.048"/><circle cx="57.641" cy="31.089" r="4.048"/><circle cx="57.224" cy="22.992" r="4.048"/><circle cx="54.2" cy="15.401" r="4.048"/><circle cx="47.681" cy="10.506" r="4.048"/></g><g fill="#d5d6db"><path d="M41.13 54.19a4.068 4.068 0 0 1-3.61 4.03 4.052 4.052 0 0 0-2.19-7.46l-.43.02a3.932 3.932 0 0 1 2.18-.64 4.046 4.046 0 0 1 4.05 4.05zm7.62-3.02a4.04 4.04 0 0 1-3.52 4.01 4.054 4.054 0 0 0-2.78-7.37 4.041 4.041 0 0 1 6.3 3.36zm6.06-5.56a4.015 4.015 0 0 1-1.64 3.25 4.049 4.049 0 0 0-6.13-4.82 4.045 4.045 0 0 1 7.77 1.57zm4.59-6.72a4.039 4.039 0 0 1-2.66 3.8 3.993 3.993 0 0 0 .79-2.4 4.052 4.052 0 0 0-4.05-4.05 4.153 4.153 0 0 0-1.37.24 4.04 4.04 0 0 1 7.29 2.41zm2.29-7.8a4.02 4.02 0 0 1-1.95 3.45 3.863 3.863 0 0 0 .41-1.76 4.059 4.059 0 0 0-4.05-4.05 3.952 3.952 0 0 0-2.1.59 4.048 4.048 0 0 1 7.69 1.77zm-1.76-5.1a4.048 4.048 0 0 0-6.53-4.32 4.045 4.045 0 0 1 7.87 1.32 4 4 0 0 1-1.34 3zM58.25 15.4a4.022 4.022 0 0 1-1.85 3.4 3.929 3.929 0 0 0 .38-1.71 4.05 4.05 0 0 0-6.25-3.39 4.046 4.046 0 0 1 7.72 1.7z"/><path d="M51.73 10.51a4.048 4.048 0 0 1-2.23 3.61 4.053 4.053 0 0 0-3.61-5.89 3.928 3.928 0 0 0-1.81.43 4.048 4.048 0 0 1 7.65 1.85z"/></g><path d="m31.487 49.076a3.707 3.707 0 0 1 1.555 4.608l-7.095 8.416-4.241-2.658 5.317-9.823a3.707 3.707 0 0 1 4.464-.543z" fill="#fcd462"/><path d="M25.947 62.6a.5.5 0 0 1-.265-.076l-4.242-2.655a.5.5 0 0 1-.174-.662l5.317-9.823a.509.509 0 0 1 .091-.12 4.217 4.217 0 0 1 5.066-.62 4.226 4.226 0 0 1 1.76 5.231.5.5 0 0 1-.08.132l-7.09 8.418a.5.5 0 0 1-.383.175zm-3.578-3.333l3.476 2.178 6.763-8.024a3.222 3.222 0 0 0-1.373-3.916 3.215 3.215 0 0 0-3.809.421z" fill="#323c6b"/><path d="M21.706 59.445s-2.577 4.039-9.4 4.5L17.727 72s6.8-3.8 8.22-9.9z" fill="#fcd462"/><g fill="#323c6b"><path d="M17.728 72.5a.5.5 0 0 1-.416-.221L11.9 64.22a.5.5 0 0 1 .382-.778c6.458-.433 8.983-4.229 9.007-4.267a.5.5 0 0 1 .687-.154l4.241 2.658a.5.5 0 0 1 .221.537c-1.453 6.242-8.177 10.061-8.463 10.22a.5.5 0 0 1-.247.064zM13.2 64.363l4.679 6.962c1.411-.888 6.2-4.2 7.5-8.992l-3.542-2.219c-.83 1.021-3.427 3.654-8.637 4.249zm7.511.866a.5.5 0 0 1-.341-.865q.214-.2.423-.424a.5.5 0 1 1 .73.683q-.232.248-.471.472a.5.5 0 0 1-.341.134z"/><path d="M14.609 67.86a.5.5 0 0 1 0-1 8.7 8.7 0 0 0 2.961-.689.5.5 0 0 1 .384.924 9.538 9.538 0 0 1-3.345.765zm24.399-54.11a5.125 5.125 0 1 1 5.125-5.125 5.13 5.13 0 0 1-5.125 5.125zm0-9.25a4.125 4.125 0 1 0 4.125 4.125A4.13 4.13 0 0 0 39.008 4.5z"/></g><circle cx="30.613" cy="10.847" fill="#eeefee" r="4.048"/><g fill="#323c6b"><path d="M30.613 15.4a4.548 4.548 0 1 1 4.548-4.548 4.553 4.553 0 0 1-4.548 4.548zm0-8.1a3.548 3.548 0 1 0 3.548 3.548A3.552 3.552 0 0 0 30.613 7.3z"/><use xlink:href="#B"/><use xlink:href="#B" x="-4.242" y="7.025"/><path d="M23.35 34.962a4.548 4.548 0 1 1 4.55-4.548 4.553 4.553 0 0 1-4.55 4.548zm0-8.1a3.548 3.548 0 1 0 3.55 3.552 3.552 3.552 0 0 0-3.55-3.548z"/><use xlink:href="#C"/><use xlink:href="#B" x="0.596" y="30.123"/><use xlink:href="#C" x="10.954" y="16.193"/><use xlink:href="#C" x="18.572" y="13.177"/><use xlink:href="#D"/><path d="M55.353 43.44a4.548 4.548 0 1 1 4.547-4.548 4.554 4.554 0 0 1-4.547 4.548zm0-8.1a3.548 3.548 0 1 0 3.547 3.552 3.552 3.552 0 0 0-3.547-3.549z"/><use xlink:href="#C" x="31.513" y="-6.905"/><use xlink:href="#B" x="32.882" y="7.025"/><path d="M54.2 19.949a4.548 4.548 0 1 1 4.548-4.549 4.554 4.554 0 0 1-4.548 4.549zm0-8.1a3.548 3.548 0 1 0 3.548 3.551 3.552 3.552 0 0 0-3.548-3.547z"/><use xlink:href="#D" x="-3.084" y="-35.108"/><path d="M22.334 72.9a.5.5 0 0 1-.319-.885 20.865 20.865 0 0 0 4.779-5.457.5.5 0 0 1 .862.506 21.837 21.837 0 0 1-5 5.721.5.5 0 0 1-.322.115zm5.866-7.587a.5.5 0 0 1-.463-.689l.177-.447a.5.5 0 0 1 .935.355q-.09.237-.186.47a.5.5 0 0 1-.463.311zm6.677-62.462l-.612-.791.538-.375a.5.5 0 0 1 .52.854c-.156.095-.301.204-.446.312zm8.377-.038a.5.5 0 0 1-.28-.086 7.036 7.036 0 0 0-5.931-.945.5.5 0 1 1-.275-.961A8.04 8.04 0 0 1 43.535 1.9a.5.5 0 0 1-.281.914z"/></g><defs ><path id="B" d="M24.342 20.516a4.548 4.548 0 1 1 4.548-4.548 4.554 4.554 0 0 1-4.548 4.548zm0-8.1a3.548 3.548 0 1 0 3.548 3.548 3.552 3.552 0 0 0-3.548-3.545z"/><path id="C" d="M26.128 42.542a4.548 4.548 0 1 1 4.548-4.548 4.553 4.553 0 0 1-4.548 4.548zm0-8.1a3.548 3.548 0 1 0 3.548 3.548 3.552 3.552 0 0 0-3.548-3.544z"/><path id="D" d="M50.765 50.163a4.548 4.548 0 1 1 4.548-4.548 4.553 4.553 0 0 1-4.548 4.548zm0-8.1a3.548 3.548 0 1 0 3.548 3.548 3.552 3.552 0 0 0-3.548-3.545z"/></defs></svg>