<svg xmlns="http://www.w3.org/2000/svg" xmlns:xlink="http://www.w3.org/1999/xlink" viewBox="0 0 512 512"><use xlink:href="#C" fill="#303c42"/><path d="M202.667 85.333c-3.25 0-5.625 1.563-7.042 2.875l-13.771 12.75L22.5 251.375c-.583.573-1.167 2.24-1.167 4.625s.583 4.052 1.167 4.635C61 299.24 136.646 369.219 181.854 411.042l13.771 12.75c1.417 1.313 3.792 2.875 7.042 2.875 5.875 0 10.667-4.781 10.667-10.667v-85.333c0-5.896 4.771-10.667 10.667-10.667 116.917 0 215.479 27.01 261 66.885C459.646 275.729 352.25 192 224 192c-5.896 0-10.667-4.771-10.667-10.667V96c0-5.885-4.791-10.667-10.666-10.667z" fill="#7cb342"/><path d="M202.667 377.333c-3.25 0-5.625-1.111-7.042-2.044l-13.771-9.064L22.5 259.296c-.583-.415-1.167-1.6-1.167-3.296 0 2.385.583 4.052 1.167 4.635C61 299.24 136.646 369.219 181.854 411.042l13.771 12.75c1.417 1.313 3.792 2.875 7.042 2.875 5.875 0 10.667-4.781 10.667-10.667v-46.25c-.001 4.184-4.792 7.583-10.667 7.583z" opacity=".1"/><linearGradient id="A" gradientUnits="userSpaceOnUse" x1="33.493" y1="-237.116" x2="527.133" y2="821.486"><stop offset="0" stop-color="#fff" stop-opacity=".2"/><stop offset="1" stop-color="#fff" stop-opacity="0"/></linearGradient><use xlink:href="#C" fill="url(#A)"/><defs ><path id="C" d="M501.333 448c-5.896 0-10.667-4.771-10.667-10.667 0-45.323-102.396-93.771-256-95.927V416c0 17.646-14.354 32-32 32-7.938 0-15.604-3.042-21.542-8.563l-13.771-12.74L7.375 275.688C2.625 270.885 0 263.906 0 256s2.625-14.885 7.375-19.677c38.813-38.927 114.667-109.094 159.979-151.021l13.771-12.74c5.938-5.52 13.604-8.562 21.542-8.562 17.646 0 32 14.354 32 32v74.844C388.563 176.052 512 293.594 512 437.333c0 5.896-4.771 10.667-10.667 10.667z"/></defs></svg>