<svg xmlns="http://www.w3.org/2000/svg" height="512" viewBox="0 0 512.02 512.02" width="512"><g fill-rule="evenodd"><path d="M198.155 116.336l57.855-57.855 57.855 57.855h81.819v81.819l57.855 57.855-57.855 57.855v81.819h-81.819l-57.855 57.855-57.855-57.855h-81.819v-81.819L58.481 256.01l57.855-57.855v-81.819zM76.336 95.828v85.758l-60.64 60.64c-7.581 7.581-7.581 19.985 0 27.566l60.64 60.641v85.758c0 10.721 8.771 19.492 19.492 19.492h85.759l60.64 60.641c7.581 7.581 19.985 7.581 27.566 0l60.64-60.641h85.759c10.721 0 19.492-8.771 19.492-19.492v-85.758l60.641-60.641c7.581-7.581 7.581-19.985 0-27.566l-60.641-60.64V95.828c0-10.721-8.771-19.492-19.492-19.492h-85.759l-60.64-60.64c-7.581-7.581-19.985-7.581-27.566 0l-60.64 60.64H95.828c-10.721 0-19.492 8.772-19.492 19.492z" fill="#ffc144"/><path d="m256.01 58.481-57.855 57.855h-81.819v81.819l-57.855 57.855 57.855 57.855v81.819h81.819l57.855 57.855 57.855-57.855h81.819v-81.819l57.855-57.855-57.855-57.855v-81.819h-81.819zm39.656 128.123 13.291-19.206 13.291 19.206 22.373 6.706-14.159 18.576.536 23.35-22.042-7.726-22.042 7.726.536-23.35-14.159-18.576zm-11.745 113.947c19.741 0 37.634-7.899 50.701-20.703-9.001 37.168-42.484 64.775-82.419 64.775-100.651-2.559-116.199-141.657-20.031-167.224-44.562 44.912-12.289 123.361 51.749 123.152z" fill="#b278d3"/><path d="M308.957 167.398l-13.291 19.206-22.373 6.706 14.158 18.576-.536 23.35 22.042-7.726 22.042 7.726-.536-23.35 14.159-18.576-22.373-6.706zm-25.036 133.153c-64.07.2-96.293-78.261-51.748-123.153-37.168 9.001-64.775 42.484-64.775 82.419 2.559 100.651 141.657 116.199 167.224 20.03-13.068 12.805-30.961 20.704-50.701 20.704z" fill="#ffc144"/></g><path d="M503.396 235.156l-57.712-57.712V95.828c0-16.262-13.23-29.492-29.492-29.492h-81.616L276.863 8.624c-11.498-11.498-30.208-11.5-41.708 0l-57.711 57.712H95.828c-16.262 0-29.492 13.23-29.492 29.492v81.616L8.624 235.156h.001c-11.412 10.94-11.41 30.767-.001 41.708l57.712 57.712v81.615c0 16.262 13.23 29.492 29.492 29.492h81.616l57.711 57.712c11.5 11.499 30.209 11.499 41.709 0l57.711-57.712h81.616c16.262 0 29.492-13.23 29.492-29.492v-81.615l57.712-57.712c11.41-10.94 11.41-30.768.001-41.708zm-14.143 27.566l-60.641 60.641c-1.875 1.876-2.929 4.419-2.929 7.071v85.758c0 5.234-4.258 9.492-9.492 9.492h-85.759c-2.652 0-5.195 1.054-7.071 2.929l-60.64 60.641c-3.7 3.702-9.722 3.702-13.424 0l-60.64-60.641c-1.876-1.875-4.419-2.929-7.071-2.929H95.828c-5.234 0-9.492-4.258-9.492-9.492v-85.758c0-2.652-1.054-5.195-2.929-7.071l-60.641-60.641c-3.652-3.495-3.651-9.927-.001-13.423h.001l60.641-60.641c1.875-1.876 2.929-4.419 2.929-7.071V95.828c0-5.234 4.258-9.492 9.492-9.492h85.759c2.652 0 5.195-1.054 7.071-2.929l60.639-60.641c3.703-3.701 9.726-3.701 13.425 0l60.64 60.641c1.876 1.875 4.419 2.929 7.071 2.929h85.759c5.234 0 9.492 4.258 9.492 9.492v85.759c0 2.652 1.054 5.195 2.929 7.071l60.642 60.641c3.65 3.496 3.649 9.928-.002 13.423zm-83.569-68.709v-77.677c0-5.522-4.478-10-10-10h-77.678L263.081 51.41c-3.906-3.904-10.236-3.904-14.143 0l-54.925 54.926h-77.678c-5.522 0-10 4.478-10 10v77.677l-54.927 54.926c-3.873 3.725-3.873 10.418 0 14.143l54.927 54.927v77.676c0 5.522 4.478 10 10 10h77.677l54.926 54.927c3.725 3.873 10.418 3.873 14.143 0l54.926-54.927h77.677c5.522 0 10-4.478 10-10v-77.676l54.927-54.927c3.873-3.725 3.873-10.418 0-14.143zm-17.072 112.781c-1.875 1.876-2.929 4.419-2.929 7.071v71.818h-71.819a10 10 0 0 0-7.071 2.929l-50.783 50.784-50.783-50.784a10 10 0 0 0-7.071-2.929h-71.819v-71.818c0-2.652-1.054-5.195-2.929-7.071L72.623 256.01l50.784-50.783a10 10 0 0 0 2.929-7.071v-71.819h71.819c2.652 0 5.195-1.054 7.071-2.929l50.783-50.783 50.783 50.783c1.876 1.875 4.419 2.929 7.071 2.929h71.819v71.819a10 10 0 0 0 2.929 7.071l50.784 50.783zm-49.051-35.641a10 10 0 0 0-11.938 1.553c-11.745 11.508-27.265 17.846-43.701 17.846-54.919.136-83.188-67.11-44.605-106.155 3.122-3.188 3.756-8.058 1.552-11.938a9.99 9.99 0 0 0-11.049-4.779c-50.728 11.587-82.762 65.202-69.53 115.438 1.354 5.355 6.796 8.599 12.146 7.244s8.598-6.792 7.244-12.146c-7.527-28.377 3.763-60.246 26.39-77.372-22.706 64.876 40.258 127.811 105.108 105.108-17.121 22.624-48.997 33.915-77.368 26.392-5.352-1.354-10.792 1.891-12.146 7.245s1.891 10.792 7.245 12.146c50.237 13.226 103.845-18.805 115.432-69.532a10 10 0 0 0-4.78-11.05zm7.932-87.422l-19.016-5.699-11.298-16.324c-3.697-5.679-12.749-5.678-16.445 0l-11.297 16.324-19.016 5.699a10 10 0 0 0-5.082 15.64l12.033 15.789-.455 19.846c-.076 3.281 1.464 6.391 4.119 8.319s6.088 2.434 9.186 1.348l18.734-6.566 18.734 6.566c6.493 2.272 13.464-2.804 13.305-9.667l-.455-19.846 12.034-15.788c1.989-2.61 2.571-6.031 1.558-9.152s-3.495-5.547-6.639-6.489zm-24.983 22.092a9.99 9.99 0 0 0-2.044 6.292l.204 8.903-8.405-2.946c-2.141-.75-4.474-.75-6.615 0l-8.405 2.946.204-8.903a9.99 9.99 0 0 0-2.044-6.291l-5.399-7.084 8.532-2.558a9.99 9.99 0 0 0 5.352-3.889l5.068-7.323 5.069 7.323a10 10 0 0 0 5.352 3.889l8.531 2.557zm-130.267 103.96h-.007a10 10 0 0 0-9.996 10c.528 13.263 19.478 13.262 20.003 0 0-5.522-4.477-10-10-10z"/></svg>