<?xml version="1.0" encoding="UTF-8" standalone="no"?>
<svg
   xmlns:dc="http://purl.org/dc/elements/1.1/"
   xmlns:cc="http://creativecommons.org/ns#"
   xmlns:rdf="http://www.w3.org/1999/02/22-rdf-syntax-ns#"
   xmlns:svg="http://www.w3.org/2000/svg"
   xmlns="http://www.w3.org/2000/svg"
   xmlns:sodipodi="http://sodipodi.sourceforge.net/DTD/sodipodi-0.dtd"
   xmlns:inkscape="http://www.inkscape.org/namespaces/inkscape"
   viewBox="0 0 25.198412 2.9026961"
   width="200"
   height="34"
   version="1.1"
   id="svg6"
   sodipodi:docname="line-seperator.svg"
   inkscape:version="1.0.1 (3bc2e813f5, 2020-09-07)">
  <metadata
     id="metadata2">
    <rdf:RDF>
      <cc:Work
         rdf:about="">
        <dc:format>image/svg+xml</dc:format>
        <dc:type
           rdf:resource="http://purl.org/dc/dcmitype/StillImage" />
        <dc:title></dc:title>
      </cc:Work>
    </rdf:RDF>
  </metadata>
  <defs
     id="defs10" />
  <sodipodi:namedview
     pagecolor="#ffffff"
     bordercolor="#666666"
     borderopacity="1"
     objecttolerance="10"
     gridtolerance="10"
     guidetolerance="10"
     inkscape:pageopacity="0"
     inkscape:pageshadow="2"
     inkscape:window-width="2272"
     inkscape:window-height="1117"
     id="namedview8"
     showgrid="false"
     inkscape:zoom="20.318963"
     inkscape:cx="185.49443"
     inkscape:cy="19.687409"
     inkscape:window-x="28"
     inkscape:window-y="150"
     inkscape:window-maximized="0"
     inkscape:current-layer="svg6"
     units="mm"
     width="100mm"
     showguides="true"
     inkscape:guide-bbox="true"
     inkscape:document-rotation="0" />
  <g
     transform="matrix(0.1413399,0,0,-0.13773374,24.688343,1.1268156)"
     id="g4">
    <path
       d="m 1.7046325,-1.2260001 c -0.08,-0.419 -0.217,-0.815 -0.367,-1.215 -0.073,-0.157 -0.154,-0.307 -0.248,-0.454 -0.13100004,-0.156 -0.27000004,-0.3 -0.42600004,-0.435 -0.085,-0.058 -0.173,-0.111 -0.266,-0.158 -0.169,-0.061 -0.339,-0.104 -0.517,-0.136 -0.13,-0.009 -0.256,-0.008 -0.385,0.002 -0.076,0.015 -0.15,0.033 -0.224,0.053 -0.119,0.075 -0.233,0.158 -0.35399996,0.236 -0.147,0.092 -0.296,0.181 -0.439,0.28 -0.11,0.098 -0.21,0.205 -0.306,0.317 -0.195,0.269 -0.385,0.552 -0.53,0.85 -0.02,0.06 -0.036,0.121 -0.049,0.183 -0.008,0.149 -0.005,0.295 0.006,0.445 0.054,0.31700003 0.136,0.62500003 0.249,0.92700003 0.093,0.185 0.195,0.36 0.311,0.532 0.112,0.128 0.231,0.246 0.36,0.357 0.126,0.089 0.253,0.172 0.389,0.242 0.10899996,0.037 0.22099996,0.063 0.33499996,0.084 0.287,0.022 0.569,0.015 0.857,-0.013 0.223,-0.035 0.443,-0.078 0.657,-0.151 0.043,-0.023 0.085,-0.049 0.127,-0.075 0.15800004,-0.141 0.30200004,-0.291 0.44000004,-0.453 0.084,-0.116 0.162,-0.235 0.228,-0.363 0.067,-0.19 0.118,-0.378 0.154,-0.575 0.011,-0.161 0.009,-0.32000003 -0.002,-0.48000003 m -11.208,-3.513 c 0.294,-0.192 0.574,-0.403 0.856,-0.612 0.592,-0.479 1.191,-0.958 1.673,-1.551 0.271,-0.361 0.525,-0.744 0.757,-1.132 0.197,-0.332 0.385,-0.666 0.55,-1.015 0.132,-0.357 0.252,-0.714 0.319,-1.0879999 0.013,-0.145 0.016,-0.287 0.006,-0.432 -0.015,-0.069 -0.032,-0.136 -0.054,-0.204 -0.02,-0.036 -0.041,-0.072 -0.064,-0.106 -0.039,-0.043 -0.079,-0.082 -0.122,-0.12 -0.05,-0.033 -0.101,-0.062 -0.155,-0.089 -0.054,-0.018 -0.109,-0.033 -0.164,-0.045 -0.061,-0.003 -0.121,-0.003 -0.181,10e-4 -0.136,0.028 -0.266,0.069 -0.396,0.118 -0.238,0.115 -0.457,0.257 -0.67,0.415 -0.501,0.421 -0.916,0.9319999 -1.318,1.4459999 -0.346,0.458 -0.687,0.914 -1.001,1.394 -0.161,0.243 -0.306,0.495 -0.457,0.742 -0.1500005,0.244 -0.3030005,0.485 -0.4480005,0.731 -0.16,0.275 -0.325,0.544 -0.507,0.804 -0.171,0.242 -0.337,0.489 -0.493,0.74 -0.163,0.262 -0.311,0.531 -0.478,0.789 -0.164,0.256 -0.317,0.526 -0.446,0.801 -0.017,0.045 -0.034,0.089 -0.05,0.134 0.258,-0.145 0.516,-0.29 0.774,-0.437 0.342,-0.193 0.676,-0.399 1.011,-0.606 0.358,-0.219 0.7070005,-0.446 1.0580005,-0.678 m -2.7590005,5.822 c 0.135,0.463 0.262,0.928 0.412,1.386 0.141,0.425 0.296,0.839 0.464,1.253 0.153,0.332 0.33,0.649 0.539,0.946 0.258,0.322 0.538,0.636 0.8520005,0.902 0.153,0.114 0.31,0.226 0.476,0.321 0.2,0.116 0.404,0.219 0.613,0.314 0.201,0.076 0.4,0.149 0.61,0.191 0.095,0.007 0.188,0.007 0.284,0 0.091,-0.018 0.179,-0.043 0.268,-0.073 0.087,-0.043 0.17,-0.091 0.251,-0.146 l 0.002,-0.002 c 0.005,-0.015 0.008,-0.031 0.012,-0.047 0.01,-0.201 -0.007,-0.4 -0.031,-0.599 -0.036,-0.22 -0.077,-0.436 -0.126,-0.651 -0.044,-0.195 -0.112,-0.382 -0.185,-0.568 -0.213,-0.456 -0.455,-0.89 -0.753,-1.296 -0.774,-0.981 -1.6570005,-1.874 -2.6340005,-2.65199997 -0.238,-0.177 -0.483,-0.343 -0.726,-0.511 -0.189,-0.132 -0.381,-0.258 -0.57,-0.388 h -0.168 c 0.118,0.544 0.254,1.084 0.41,1.61999997 m -5.348,-7.87 c 0.181,-0.494 0.263,-1.013 0.345,-1.533 0.08,-0.612 0.152,-1.231 0.099,-1.8479999 -0.013,-0.065 -0.028,-0.129 -0.047,-0.192 l -0.019,-0.032 -0.018,-0.018 c -0.069,-0.045 -0.139,-0.086 -0.213,-0.123 -0.084,-0.027 -0.167,-0.049 -0.254,-0.067 -0.099,-0.008 -0.199,-0.009 -0.298,-0.002 -0.066,0.015 -0.13,0.033 -0.194,0.055 -0.179,0.089 -0.345,0.198 -0.506,0.317 -0.185,0.154 -0.342,0.3329999 -0.496,0.5179999 -0.292,0.402 -0.534,0.826 -0.755,1.271 -0.228,0.459 -0.447,0.923 -0.654,1.392 -0.088,0.216 -0.167,0.432 -0.238,0.654 -0.08,0.251 -0.125,0.516 -0.174,0.773 -0.09,0.476 -0.169,0.952 -0.236,1.431 -0.057,0.486 -0.1,0.969 -0.083,1.454 0.146,-0.084 0.291,-0.169 0.434,-0.256 0.365,-0.22 0.739,-0.437 1.084,-0.687 0.224,-0.191 0.429,-0.398 0.632,-0.609 0.142,-0.148 0.283,-0.296 0.415,-0.453 0.262,-0.361 0.484,-0.753 0.709,-1.136 0.173,-0.294 0.325,-0.598 0.467,-0.909 M -149.517,-4.204 c -0.004,-0.169 -0.021,-0.338 -0.038,-0.506 -0.023,-0.144 -0.048,-0.289 -0.082,-0.432 -0.041,-0.181 -0.079,-0.369 -0.137,-0.545 -0.135,-0.409 -0.29,-0.808 -0.453,-1.207 -0.224,-0.519 -0.461,-1.031 -0.729,-1.53 -0.277,-0.515 -0.604,-1.007 -0.952,-1.478 -0.257,-0.303 -0.541,-0.576 -0.846,-0.83 -0.117,-0.085 -0.236,-0.162 -0.365,-0.226 -0.154,-0.056 -0.311,-0.098 -0.472,-0.129 -0.099,-0.008 -0.197,-0.009 -0.296,-0.003 -0.036,0.008 -0.071,0.018 -0.106,0.028 -0.002,10e-4 -0.004,0.002 -0.005,0.003 -0.019,0.018 -0.036,0.036 -0.053,0.054 -0.03,0.05 -0.057,0.099 -0.083,0.15 -0.044,0.129 -0.077,0.26 -0.102,0.395 -0.02,0.24 -0.013,0.475 0.009,0.714 0.081,0.441 0.205,0.864 0.369,1.281 0.255,0.539 0.578,1.029 0.937,1.504 0.252,0.311 0.511,0.622 0.806,0.894 0.288,0.267 0.582,0.525 0.889,0.771 0.244,0.18 0.493,0.352 0.744,0.522 0.274,0.184 0.539,0.38 0.806,0.575 l 0.161,0.114 c 0,-0.039 0,-0.079 -0.002,-0.119 m -4.583,5.979 c -0.436,0.344 -0.835,0.73 -1.184,1.163 -0.066,0.094 -0.127,0.191 -0.179,0.293 -0.015,0.046 -0.027,0.091 -0.037,0.138 -0.005,0.058 -0.005,0.115 -0.002,0.174 0.007,0.031 0.015,0.062 0.025,0.094 0.016,0.027 0.031,0.054 0.048,0.081 0.025,0.027 0.051,0.053 0.078,0.079 0.023,0.015 0.048,0.029 0.072,0.042 0.037,0.012 0.073,0.02 0.111,0.029 0.085,0.004 0.17,0.002 0.255,-0.004 0.19,-0.038 0.371,-0.095 0.55,-0.166 0.328,-0.163 0.641,-0.354 0.957,-0.54 0.269,-0.159 0.531,-0.331 0.782,-0.515 0.668,-0.551 1.294,-1.164 1.84,-1.837 0.388,-0.525 0.727,-1.084 0.993,-1.681 0.007,-0.02 0.012,-0.04 0.019,-0.06 -0.074,-0.002 -0.147,-0.004 -0.221,-0.006 -0.135,0.11 -0.276,0.216 -0.431,0.297 -0.144,0.077 -0.29,0.149 -0.435,0.226 -0.294,0.155 -0.583,0.318 -0.872,0.481 -0.564,0.323 -1.079,0.725 -1.593,1.121 -0.257,0.199 -0.515,0.396 -0.776,0.591 m -6.304,-6.667 c -0.118,-0.431 -0.267,-0.852 -0.424,-1.271 -0.177,-0.47 -0.359,-0.937 -0.545,-1.403 -0.215,-0.508 -0.44,-1.006 -0.753,-1.461 -0.149,-0.173 -0.311,-0.33 -0.485,-0.476 -0.197,-0.138 -0.402,-0.258 -0.617,-0.364 -0.304,-0.111 -0.614,-0.193 -0.934,-0.253 -0.226,-0.021 -0.448,-0.026 -0.675,-0.007 -0.096,0.019 -0.189,0.042 -0.282,0.072 -0.021,0.012 -0.043,0.025 -0.064,0.037 -0.017,0.017 -0.034,0.034 -0.05,0.051 -0.011,0.017 -0.021,0.034 -0.031,0.052 -0.008,0.027 -0.015,0.055 -0.022,0.082 -0.003,0.062 -0.003,0.124 0.001,0.186 0.023,0.115 0.056,0.225 0.094,0.336 0.105,0.216 0.235,0.414 0.379,0.607 0.429,0.517 0.905,1 1.387,1.47 0.244,0.237 0.497,0.465 0.743,0.701 0.267,0.258 0.525,0.523 0.798,0.774 0.504,0.461 1.061,0.86 1.587,1.296 -0.033,-0.143 -0.068,-0.286 -0.107,-0.429 m -1.997,4.798 c -0.384,0.23 -0.727,0.502 -1.087,0.765 -0.345,0.254 -0.699,0.495 -1.042,0.752 -0.547,0.447 -1.03,0.978 -1.474,1.527 -0.134,0.178 -0.264,0.358 -0.369,0.554 -0.03,0.086 -0.055,0.172 -0.076,0.262 -0.004,0.07 -0.005,0.137 -10e-4,0.208 0.005,0.017 0.01,0.035 0.014,0.053 0.002,0.003 0.004,0.006 0.006,0.01 0.015,0.015 0.03,0.029 0.046,0.044 0.04,0.025 0.082,0.049 0.124,0.07 0.124,0.043 0.25,0.076 0.379,0.1 0.189,0.016 0.373,0.009 0.561,-0.01 0.323,-0.06 0.637,-0.144 0.947,-0.255 0.498,-0.234 0.977,-0.53 1.419,-0.858 0.565,-0.469 1.113,-0.97 1.577,-1.538 0.232,-0.327 0.434,-0.667 0.636,-1.013 0.206,-0.353 0.429,-0.695 0.603,-1.065 0.107,-0.269 0.201,-0.535 0.256,-0.819 0.006,-0.098 0.005,-0.193 -0.002,-0.29 -0.073,-0.007 -0.146,-0.011 -0.219,-0.018 -0.009,0.007 -0.02,0.011 -0.029,0.018 -0.175,0.138 -0.351,0.27 -0.537,0.393 -0.173,0.114 -0.345,0.233 -0.514,0.352 -0.392,0.277 -0.806,0.513 -1.218,0.758 m -4.012,4.156 0.001,10e-4 c -0.002,-10e-4 -0.004,-0.004 -0.005,-0.006 0.001,0.002 0.002,0.004 0.004,0.005 m 0.062,0.08 c -0.02,-0.025 -0.04,-0.051 -0.059,-0.077 -0.001,0 -0.002,-0.001 -0.002,-0.001 0.018,0.028 0.039,0.053 0.061,0.078 m -2.099,-7.097 c -0.075,-0.125 -0.134,-0.265 -0.199,-0.396 -0.094,-0.19 -0.188,-0.377 -0.289,-0.562 -0.115,-0.211 -0.255,-0.409 -0.391,-0.607 -0.102,-0.15 -0.202,-0.3 -0.308,-0.448 -0.132,-0.155 -0.271,-0.298 -0.425,-0.431 -0.131,-0.091 -0.266,-0.172 -0.409,-0.244 -0.135,-0.045 -0.27,-0.084 -0.41,-0.114 -0.199,-0.019 -0.394,-0.025 -0.595,-0.014 -0.117,0.026 -0.23,0.057 -0.343,0.096 -0.129,0.066 -0.252,0.138 -0.37,0.218 -0.062,0.06 -0.118,0.12 -0.174,0.185 -0.19,0.272 -0.347,0.578 -0.486,0.88 -0.109,0.309 -0.176,0.623 -0.226,0.946 -0.034,0.341 -0.038,0.673 -0.012,1.012 0.039,0.207 0.091,0.408 0.16,0.609 0.075,0.157 0.16,0.306 0.258,0.452 0.076,0.085 0.154,0.161 0.242,0.235 0.152,0.108 0.305,0.201 0.471,0.284 0.197,0.069 0.394,0.121 0.599,0.157 0.268,0.017 0.529,0.016 0.797,-0.003 0.269,-0.046 0.528,-0.111 0.786,-0.203 0.221,-0.104 0.427,-0.224 0.626,-0.364 0.127,-0.112 0.244,-0.229 0.357,-0.355 0.122,-0.179 0.222,-0.369 0.314,-0.566 0.048,-0.127 0.092,-0.254 0.132,-0.384 0.016,-0.05 0.032,-0.101 0.046,-0.152 -0.054,-0.075 -0.104,-0.154 -0.151,-0.231 m 147.290632,3.86899993 c 0.106,0.69099997 0.267,1.35999997 0.505,2.01699997 0.168,0.369 0.358,0.729 0.542,1.09 0.204,0.402 0.434,0.785 0.694,1.153 0.126,0.152 0.261,0.29 0.412,0.418 0.094,0.06 0.19,0.112 0.289,0.162 0.122,0.044 0.245,0.081 0.373,0.107 0.084,0.006 0.168,0.007 0.253,0.003 0.063,-0.014 0.124,-0.029 0.184,-0.05 0.041,-0.021 0.08,-0.044 0.118,-0.069 0.021,-0.021 0.042,-0.041 0.063,-0.063 0.021,-0.033 0.04,-0.067 0.059,-0.101 0.01,-0.034 0.019,-0.066 0.027,-0.098 0.008,-0.147 -0.002,-0.292 -0.015,-0.44 -0.063,-0.388 -0.15,-0.764 -0.283,-1.137 -0.297,-0.661 -0.657,-1.301 -1.075,-1.894 -0.531,-0.656 -1.13,-1.26399997 -1.782,-1.79999997 -0.166,-0.124 -0.334,-0.244 -0.501,-0.367 0.046,0.357 0.092,0.712 0.137,1.069 m 24.6440005,-0.703 c -0.078,0.269 -0.176,0.532 -0.311,0.78 -0.126,0.23399997 -0.299,0.44199997 -0.462,0.65099997 -0.116,0.149 -0.242,0.283 -0.379,0.413 -0.343,0.327 -0.748,0.553 -1.205,0.679 -0.16000004,0.043 -0.32200004,0.07 -0.48500004,0.097 -0.254,0.041 -0.518,0.077 -0.775,0.085 -0.055,0.002 -0.11,0.003 -0.166,0.003 -0.431,0 -0.87199996,-0.059 -1.27699996,-0.202 -0.363,-0.127 -0.651,-0.312 -0.947,-0.547 -0.135,-0.105 -0.268,-0.212 -0.383,-0.339 -0.278,-0.303 -0.507,-0.638 -0.675,-1.01299997 -0.215,-0.482 -0.394,-0.987 -0.487,-1.506 -2.18,0.122 -4.366,0.136 -6.5480005,0.148 0.313,0.236 0.6180005,0.483 0.9030005,0.754 0.461,0.437 0.918,0.87099997 1.331,1.35499997 0.213,0.25 0.43,0.497 0.636,0.754 0.227,0.282 0.432,0.576 0.629,0.881 0.362,0.554 0.654,1.172 0.807,1.817 0.119,0.504 0.229,1.044 0.096,1.555 -0.126,0.488 -0.585,0.79 -1.03,0.956 -0.198,0.073 -0.401,0.118 -0.613,0.137 -0.062,0.004 -0.123,0.007 -0.184,0.007 -0.172,0 -0.341,-0.02 -0.516,-0.048 -0.308,-0.051 -0.595,-0.199 -0.88,-0.319 -0.151,-0.063 -0.298,-0.142 -0.441,-0.222 -0.2800005,-0.16 -0.5430005,-0.338 -0.8000005,-0.53 -0.295,-0.219 -0.55,-0.472 -0.807,-0.734 -0.241,-0.247 -0.472,-0.504 -0.662,-0.794 -0.138,-0.21 -0.266,-0.421 -0.378,-0.646 -0.128,-0.256 -0.244,-0.52 -0.358,-0.782 -0.254,-0.573 -0.479,-1.152 -0.679,-1.746 -0.172,-0.512 -0.34,-1.02299997 -0.489,-1.54299997 -0.08,-0.275 -0.145,-0.555 -0.2,-0.837 0,-0.003 0,-0.007 -10e-4,-0.01 -0.202,0 -0.404,0.001 -0.607,0.001 -1.102,-0.001 -2.204,0.002 -3.305,-0.027 -0.539,-0.016 -1.077,-0.025 -1.616,-0.038 0.214,0.165 0.424,0.335 0.626,0.514 0.617,0.551 1.187,1.14699997 1.655,1.83199997 0.218,0.318 0.412,0.65 0.6,0.985 0.197,0.351 0.375,0.7 0.511,1.079 0.142,0.402 0.221,0.83 0.266,1.254 0.016,0.15 0.026,0.297 0.02,0.45 -0.013,0.263 -0.079,0.499 -0.187,0.738 -0.182,0.401 -0.524,0.733 -0.928,0.904 -0.241,0.101 -0.452,0.159 -0.713,0.187 -0.077,0.01 -0.154,0.014 -0.23,0.014 -0.093,0 -0.184,-0.006 -0.277,-0.018 -0.201,-0.024 -0.394,-0.058 -0.585,-0.122 -0.167,-0.053 -0.33,-0.129 -0.487,-0.205 -0.484,-0.237 -0.861,-0.629 -1.173,-1.058 -0.455,-0.622 -0.796,-1.308 -1.116,-2.006 -0.348,-0.752 -0.571,-1.542 -0.706,-2.359 -0.072,-0.429 -0.109,-0.86199997 -0.154,-1.29399997 -0.033,-0.32 -0.09327,-0.81094684 -0.129266,-1.13094684 -1.13,-0.021 -2.198957,0.011 -3.328957,0 -1.277,-0.012 -3.915309,0 -3.915309,0 h -112.79041 c 0,0 -2.41793,0.005 -3.67393,0 -0.607,-0.002 -1.23727,0.018 -1.84427,0 -0.074,0.273 -0.16049,0.47894691 -0.27649,0.73794691 -0.266,0.598 -0.614,1.161 -1.002,1.689 -0.221,0.301 -0.466,0.58 -0.716,0.855 -0.218,0.241 -0.44,0.481 -0.673,0.707 -0.218,0.211 -0.44,0.423 -0.679,0.609 -0.307,0.239 -0.622,0.453 -0.956,0.652 -0.143,0.086 -0.294,0.163 -0.441,0.243 -0.152,0.082 -0.307,0.167 -0.464,0.236 -0.204,0.086 -0.405,0.169 -0.617,0.234 -0.227,0.069 -0.474,0.1 -0.71,0.113 -0.023,0.002 -0.047,0.002 -0.071,0.002 -0.162,0 -0.33,-0.029 -0.484,-0.059 -0.169,-0.035 -0.339,-0.116 -0.484,-0.205 -0.342,-0.208 -0.564,-0.557 -0.685,-0.93 -0.102,-0.314 -0.068,-0.668 0.01,-0.983 0.065,-0.262 0.215,-0.494 0.37,-0.711 0.161,-0.224 0.348,-0.429 0.531,-0.633 0.177,-0.196 0.355,-0.389 0.549,-0.567 0.221,-0.202 0.46,-0.384 0.692,-0.571 0.219,-0.178 0.433,-0.359 0.653,-0.535 0.489,-0.391 0.979,-0.776 1.516,-1.101 -0.488,-0.023 -0.976,-0.047 -1.464,-0.069 -0.557,-0.025 -1.113,-0.078 -1.67,-0.118 -0.592,-0.041 -1.184,-0.08 -1.778,-0.12 -0.392,-0.028 -0.784,-0.062 -1.176,-0.097 -0.001,0.147 -0.021,0.294 -0.042,0.437 -0.014,0.102 -0.028,0.206 -0.052,0.306 -0.101,0.418 -0.247,0.842 -0.44,1.228 -0.155,0.31 -0.338,0.604 -0.502,0.908 -0.179,0.327 -0.365,0.646 -0.58,0.95 -0.241,0.337 -0.506,0.647 -0.796,0.94 -0.254,0.256 -0.514,0.514 -0.792,0.747 -0.306,0.255 -0.617,0.5 -0.955,0.713 -0.315,0.2 -0.656,0.369 -0.995,0.526 -0.413,0.191 -0.84,0.275 -1.292,0.332 -0.164,0.019 -0.328,0.03 -0.492,0.03 -0.281,0 -0.561,-0.03 -0.841,-0.093 -0.337,-0.074 -0.659,-0.225 -0.931,-0.436 -0.166,-0.129 -0.295,-0.299 -0.396,-0.483 -0.14,-0.253 -0.165,-0.562 -0.148,-0.845 0.032,-0.566 0.315,-1.031 0.636,-1.474 0.404,-0.559 0.877,-1.089 1.377,-1.561 0.254,-0.242 0.544,-0.453 0.824,-0.659 0.238,-0.176 0.48,-0.347 0.716,-0.525 0.278,-0.223 0.557,-0.447 0.858,-0.642 0.318,-0.206 0.647,-0.392 0.969,-0.591 0.053,-0.033 0.103,-0.07 0.156,-0.104 -0.119,-0.006 -0.237,-0.013 -0.355,-0.017 -0.543,-0.016 -1.084,-0.023 -1.626,-0.051 -0.495,-0.026 -0.99,-0.048 -1.485,-0.065 -0.279,-0.009 -0.557,-0.012 -0.835,-0.023 -0.139,-0.005 -0.276,-0.014 -0.412,-0.029 -0.072,0.214 -0.172,0.421 -0.271,0.62 -0.143,0.286 -0.344,0.551 -0.554,0.79 -0.177,0.199 -0.413,0.363 -0.628,0.518 -0.168,0.124 -0.365,0.215 -0.554,0.302 -0.283,0.131 -0.575,0.23 -0.878,0.306 -0.368,0.09 -0.752,0.132 -1.135,0.132 -0.261,0 -0.521,-0.019 -0.776,-0.056 -0.589,-0.087 -1.132,-0.277 -1.63,-0.606 -0.734,-0.484 -1.199,-1.301 -1.366,-2.154 -0.107,-0.547 -0.1,-1.095 -0.053,-1.644 0.028,-0.325 0.074,-0.651 0.145,-0.968 0.07,-0.314 0.207,-0.607 0.34,-0.898 0.175,-0.386 0.406,-0.721 0.692,-1.037 0.123,-0.134 0.287,-0.244 0.44,-0.343 0.077,-0.048 0.154,-0.096 0.236,-0.138 0.26,-0.137 0.533,-0.243 0.819,-0.309 0.505,-0.114 0.988,-0.06 1.492,0.01 0.307,0.044 0.597,0.174 0.878,0.298 0.137,0.06 0.272,0.136 0.396,0.222 0.278,0.197 0.53,0.409 0.766,0.653 0.23,0.238 0.419,0.523 0.61,0.794 0.179,0.252 0.355,0.501 0.51,0.767 0.164,0.283 0.304,0.579 0.482,0.855 0.009,0.01 0.018,0.019 0.028,0.029 0.135,0.044 0.271,0.076 0.412,0.103 0.502,0.05 1.008,0.063 1.51,0.098 0.522,0.035 1.041,0.072 1.562,0.089 0.567,0.021 1.137,0.002 1.705,-0.004 h 0.062 c -0.084,-0.072 -0.167,-0.146 -0.251,-0.219 -0.29,-0.245 -0.583,-0.489 -0.863,-0.746 -0.275,-0.251 -0.538,-0.509 -0.799,-0.776 -0.484,-0.493 -0.982,-0.968 -1.451,-1.477 -0.501,-0.544 -1.016,-1.07 -1.422,-1.692 -0.114,-0.174 -0.187,-0.378 -0.263,-0.57 -0.129,-0.322 -0.187,-0.7 -0.148,-1.043 0.029,-0.243 0.08,-0.454 0.187,-0.676 0.088,-0.181 0.213,-0.34 0.35,-0.488 0.14,-0.152 0.325,-0.272 0.51,-0.361 0.206,-0.096 0.426,-0.178 0.651,-0.215 0.226,-0.037 0.453,-0.073 0.683,-0.077 0.199,-0.005 0.393,0.012 0.591,0.035 0.244,0.028 0.496,0.067 0.734,0.132 0.257,0.074 0.5,0.167 0.745,0.276 0.378,0.168 0.728,0.421 1.033,0.696 0.29,0.262 0.545,0.573 0.749,0.907 0.198,0.324 0.35,0.669 0.502,1.016 0.193,0.437 0.358,0.886 0.529,1.332 0.144,0.378 0.28,0.76 0.419,1.14 0.148,0.404 0.272,0.82 0.378,1.237 0.136,0.532 0.21,1.083 0.294,1.625 0,0.002 0.001,0.004 0.001,0.007 0.076,0.003 0.153,0.007 0.229,0.01 0.619,0.028 1.24,0.022 1.859,0.038 1.198,0.03 2.394,0.12 3.592,0.17 0.663,0.03 1.326,0.068 1.988,0.107 -0.126,-0.096 -0.253,-0.191 -0.383,-0.282 -0.257,-0.185 -0.523,-0.357 -0.775,-0.548 -0.309,-0.233 -0.61,-0.472 -0.896,-0.735 -0.256,-0.235 -0.504,-0.475 -0.735,-0.738 -0.242,-0.275 -0.47,-0.562 -0.687,-0.859 -0.202,-0.279 -0.391,-0.564 -0.563,-0.863 -0.185,-0.327 -0.336,-0.665 -0.472,-1.015 -0.112,-0.289 -0.197,-0.601 -0.251,-0.905 -0.064,-0.359 -0.124,-0.728 -0.106,-1.092 0.018,-0.388 0.072,-0.772 0.216,-1.134 0.092,-0.231 0.208,-0.457 0.38,-0.64 0.081,-0.088 0.165,-0.162 0.265,-0.231 0.121,-0.085 0.253,-0.137 0.39,-0.193 0.085,-0.036 0.182,-0.046 0.271,-0.06 0.129,-0.018 0.248,-0.031 0.376,-0.033 0.224,-0.006 0.455,0.041 0.673,0.09 0.089,0.019 0.178,0.047 0.265,0.077 0.19,0.065 0.391,0.15 0.558,0.264 0.308,0.213 0.599,0.454 0.861,0.72 0.263,0.266 0.492,0.549 0.708,0.855 0.387,0.542 0.72,1.122 1.004,1.724 0.234,0.498 0.443,1.01 0.638,1.525 0.105,0.275 0.205,0.552 0.303,0.831 0.079,0.223 0.13,0.452 0.181,0.682 0.109,0.505 0.167,1.016 0.173,1.532 0.003,0.321 -0.036,0.637 -0.093,0.95 0.051,0.067 0.093,0.135 0.131,0.205 1.002,0.044 2.97698,0.052252 2.97698,0.052252 l 115.798717,1e-7 c 0,0 4.760036,-0.025 6.807036,-1e-7 0.04097,-0.065452 0.06948,-0.063097 0.113484,-0.1020969 0.02,-0.016 0.03352,-0.066903 0.05352,-0.082903 -0.002,-0.025 0.01694,-0.1596772 0.01494,-0.1856772 l 0.02596,-0.4365747 c 0.067,-0.825 0.199,-1.638 0.331,-2.454 0.129,-0.797 0.444,-1.555 0.781,-2.285 0.156,-0.337 0.31,-0.675 0.476,-1.009 0.17,-0.343 0.374,-0.6670002 0.596,-0.9800002 0.132,-0.188 0.285,-0.364 0.436,-0.537 0.201,-0.231 0.462,-0.416 0.706,-0.597 0.665,-0.495 1.52,-0.599 2.312,-0.4 0.226,0.057 0.456,0.163 0.655,0.287 0.232,0.147 0.401,0.341 0.551,0.566 0.124,0.186 0.192,0.429 0.236,0.646 0.044,0.216 0.061,0.438 0.078,0.6580002 0.032,0.396 -0.002,0.8 -0.037,1.193 -0.04,0.443 -0.085,0.894 -0.169,1.331 -0.055,0.291 -0.111,0.579 -0.194,0.864 -0.09,0.315 -0.243,0.62 -0.381,0.918 -0.165,0.357 -0.366,0.699 -0.569,1.035 -0.176,0.29 -0.348,0.582 -0.555,0.849 -0.22,0.286 -0.461,0.546 -0.711,0.804 -0.19,0.196 -0.389,0.379 -0.599,0.549 0.277,0.006 0.553,0.011 0.829,0.013 1.233,0.006 2.467,0.009 3.7,0.008 0.123,-0.084 0.269,-0.132 0.419,-0.132 0.013,0 0.027,0.001 0.04,0.001 0.019,-0.064 0.035,-0.128 0.047,-0.193 0.126,-0.646 0.396,-1.239 0.73,-1.802 0.165,-0.282 0.341,-0.555 0.503,-0.838 0.151,-0.262 0.333,-0.512 0.508,-0.758 0.188,-0.265 0.361,-0.536 0.529,-0.813 0.156,-0.256 0.323,-0.508 0.483,-0.764 0.321,-0.516 0.646,-1.026 0.9960005,-1.522 0.168,-0.238 0.347,-0.47 0.523,-0.702 0.223,-0.2960002 0.448,-0.5880002 0.69,-0.8680002 0.22,-0.252 0.446,-0.509 0.708,-0.719 0.277,-0.223 0.566,-0.458 0.895,-0.604 0.17,-0.077 0.34,-0.15 0.518,-0.206 0.351,-0.113 0.733,-0.103 1.086,-0.014 0.376,0.095 0.739,0.331 0.981,0.631 0.079,0.095 0.143,0.187 0.202,0.295 0.059,0.109 0.1,0.229 0.141,0.345 0.035,0.101 0.051,0.208 0.065,0.313 0.025,0.173 0.039,0.337 0.031,0.511 -0.019,0.4420002 -0.136,0.8930002 -0.292,1.3070002 -0.136,0.363 -0.293,0.707 -0.483,1.043 -0.167,0.292 -0.34,0.585 -0.531,0.864 -0.38,0.553 -0.759,1.105 -1.252,1.565 -0.573,0.533 -1.196,1.012 -1.83,1.473 -0.594,0.431 -1.223,0.813 -1.8490005,1.195 -0.223,0.136 -0.449,0.266 -0.675,0.396 0.158,0 0.316,0 0.474,10e-4 1.3060005,0.003 2.6130005,0.007 3.9190005,0.004 0.815,-0.002 1.63,-0.011 2.444,-0.051 10e-4,-0.003 10e-4,-0.007 0.003,-0.011 0.052,-0.163 0.131,-0.32 0.21,-0.473 0.073,-0.142 0.172,-0.275 0.26,-0.41 0.212,-0.327 0.45,-0.65 0.736,-0.918 0.283,-0.266 0.614,-0.445 0.948,-0.636 0.155,-0.088 0.298,-0.183 0.462,-0.255 0.1,-0.049 0.204,-0.089 0.312,-0.118 0.14899996,-0.046 0.31599996,-0.05 0.47099996,-0.063 0.078,-0.008 0.16,-0.004 0.238,-0.003 0.338,0.003 0.678,0.035 1.008,0.104 0.187,0.039 0.38100004,0.122 0.55100004,0.202 0.126,0.062 0.252,0.122 0.371,0.196 0.299,0.188 0.61,0.393 0.847,0.658 0.232,0.258 0.394,0.554 0.537,0.867 0.106,0.234 0.183,0.474 0.229,0.721 0.011,0.023 0.021,0.047 0.032,0.07 0.095,0.217 0.195,0.437 0.26,0.664 0.072,0.249 0.117,0.504 0.138,0.76200003 0.03,0.391 -0.006,0.808 -0.114,1.185"
       style="fill:#006400;fill-opacity:0.7;fill-rule:nonzero;stroke:none"
       id="path8"
       sodipodi:nodetypes="cccccccccccccccccccccccccccccccccccccccccccccccccccccccccccccccccccccccccccccccccccccccccccccccccccccccccccccccccccccccccccccccccccccccccccccccccccccccccccccccccccccccccccccccccccccccccccccccccccccccccccccccccccccccccccccccccccccccccccccccccccccccccccccccsccccccccccccccscccccccccccccccccsccccccscccccccccccccccccccccccsccccccccccccccccscccccccscccccccccccccccccccccsccccccccccccccccccccccccccccccccccccccccccccccccccccccccccccccccccccccccccccccccccccccccccccsccccccccccccscccccccccccccccccccccccccccccccccccccccccccccccc" />
  </g>
</svg>
