<svg xmlns="http://www.w3.org/2000/svg" viewBox="0 0 496.159 496.159"><path d="M0 248.085C0 111.064 111.07.003 248.076.003c137.012 0 248.083 111.061 248.083 248.082 0 137.002-111.07 248.071-248.083 248.071C111.07 496.156 0 385.087 0 248.085z" fill="#32bea6"/><path d="M96.627 239.349l117.188-71.957c3.199-1.965 7.409-2.051 10.685-.217 3.335 1.865 5.406 5.398 5.406 9.219V319.74c0 3.814-2.064 7.344-5.39 9.211-1.576.887-3.366 1.354-5.175 1.354a10.56 10.56 0 0 1-5.495-1.541L96.658 257.373c-3.119-1.9-5.062-5.35-5.067-9.002a10.63 10.63 0 0 1 5.036-9.022zm152.657 0l117.188-71.957c3.199-1.965 7.409-2.051 10.684-.217 3.335 1.865 5.406 5.398 5.406 9.219V319.74c0 3.814-2.064 7.344-5.39 9.211a10.57 10.57 0 0 1-5.175 1.354c-1.939 0-3.84-.533-5.495-1.541l-117.187-71.391a10.63 10.63 0 0 1-5.068-9.002c-.006-3.655 1.923-7.112 5.037-9.022z" fill="#fff"/></svg>