<svg xmlns="http://www.w3.org/2000/svg" height="512" width="512"><path d="M443.156 329.183l65.775-65.775a10.48 10.48 0 0 0 0-14.816l-65.775-65.775c-1.965-1.965-3.068-4.629-3.068-7.408V82.388a10.48 10.48 0 0 0-10.476-10.476h-93.021a10.48 10.48 0 0 1-7.408-3.068L263.408 3.068a10.48 10.48 0 0 0-14.816 0l-65.775 65.775c-1.965 1.965-4.629 3.068-7.408 3.068H82.388a10.48 10.48 0 0 0-10.476 10.476v93.021a10.48 10.48 0 0 1-3.068 7.408L3.069 248.592a10.48 10.48 0 0 0 0 14.816l65.775 65.775c1.965 1.965 3.068 4.629 3.068 7.408v93.021a10.48 10.48 0 0 0 10.476 10.476h93.021a10.48 10.48 0 0 1 7.408 3.068l65.775 65.775a10.48 10.48 0 0 0 14.816 0l65.775-65.775c1.965-1.965 4.629-3.068 7.408-3.068h93.021a10.48 10.48 0 0 0 10.476-10.476v-93.021a10.48 10.48 0 0 1 3.068-7.408z" fill="#c1e9af"/><path d="M508.932 248.592l-65.775-65.775c-1.965-1.965-3.068-4.629-3.068-7.408V82.388a10.48 10.48 0 0 0-10.476-10.476h-9.323C412.569 257.775 259.608 406.124 71.912 406.4v23.212a10.48 10.48 0 0 0 10.476 10.476h93.021a10.48 10.48 0 0 1 7.408 3.068l65.775 65.775a10.48 10.48 0 0 0 14.816 0l65.775-65.775c1.965-1.965 4.629-3.068 7.408-3.068h93.021a10.48 10.48 0 0 0 10.476-10.476v-93.021a10.48 10.48 0 0 1 3.068-7.408l65.775-65.775a10.48 10.48 0 0 0 .001-14.816z" fill="#ade194"/><path d="M451.871 248.592l-52.131-52.131v-73.725a10.48 10.48 0 0 0-10.476-10.476H315.54l-52.131-52.131a10.48 10.48 0 0 0-14.816 0l-52.131 52.131h-73.724a10.48 10.48 0 0 0-10.476 10.476v73.725l-52.131 52.131a10.48 10.48 0 0 0 0 14.816l52.131 52.131v73.724a10.48 10.48 0 0 0 10.476 10.477h73.724l52.131 52.131a10.48 10.48 0 0 0 14.816 0l52.131-52.131h73.724a10.48 10.48 0 0 0 10.476-10.477v-73.724l52.131-52.131a10.48 10.48 0 0 0 0-14.816z" fill="#f5f8f9"/><path d="M399.74 196.461v-20.206C358.573 289.758 260.264 375.853 139.557 399.74h56.904l52.131 52.131a10.48 10.48 0 0 0 14.816 0l52.131-52.131h73.724a10.48 10.48 0 0 0 10.476-10.477v-73.724l52.131-52.131a10.48 10.48 0 0 0 0-14.816z" fill="#e8edf2"/><circle cx="252.12" cy="255.476" fill="#c1e9af" r="60.763"/></svg>