<svg xmlns="http://www.w3.org/2000/svg" xmlns:xlink="http://www.w3.org/1999/xlink" height="512" width="512"><g fill="#b0e7c9"><use xlink:href="#B"/><use xlink:href="#B" x="33.869"/><use xlink:href="#B" x="67.737"/><use xlink:href="#B" x="101.607"/><path d="M256 512a7.5 7.5 0 0 1-7.497-7.497v-18.935a7.5 7.5 0 0 1 7.497-7.497 7.5 7.5 0 0 1 7.497 7.497v18.935A7.5 7.5 0 0 1 256 512z"/><use xlink:href="#B" x="169.344"/><use xlink:href="#B" x="203.213"/><use xlink:href="#B" x="237.081"/><use xlink:href="#B" x="270.95"/><path d="M120.525 32.764a7.5 7.5 0 0 1-7.497-7.497V7.497A7.5 7.5 0 0 1 120.525 0a7.5 7.5 0 0 1 7.497 7.497v17.77a7.5 7.5 0 0 1-7.497 7.497zm33.869 0a7.5 7.5 0 0 1-7.497-7.497V7.497A7.5 7.5 0 0 1 154.394 0a7.5 7.5 0 0 1 7.497 7.497v17.77a7.5 7.5 0 0 1-7.497 7.497zm33.868 0a7.5 7.5 0 0 1-7.497-7.497V7.497A7.5 7.5 0 0 1 188.262 0a7.5 7.5 0 0 1 7.497 7.497v17.77a7.5 7.5 0 0 1-7.497 7.497zm33.87 0a7.5 7.5 0 0 1-7.497-7.497V7.497A7.5 7.5 0 0 1 222.132 0a7.5 7.5 0 0 1 7.497 7.497v17.77a7.5 7.5 0 0 1-7.497 7.497zm33.868 0a7.5 7.5 0 0 1-7.497-7.497V7.497A7.5 7.5 0 0 1 256 0a7.5 7.5 0 0 1 7.497 7.497v17.77A7.5 7.5 0 0 1 256 32.764zm33.869 0a7.5 7.5 0 0 1-7.497-7.497V7.497A7.5 7.5 0 0 1 289.869 0a7.5 7.5 0 0 1 7.497 7.497v17.77a7.5 7.5 0 0 1-7.497 7.497zm33.869 0a7.5 7.5 0 0 1-7.497-7.497V7.497A7.5 7.5 0 0 1 323.738 0a7.5 7.5 0 0 1 7.497 7.497v17.77a7.5 7.5 0 0 1-7.497 7.497zm33.868 0a7.5 7.5 0 0 1-7.497-7.497V7.497A7.5 7.5 0 0 1 357.606 0a7.5 7.5 0 0 1 7.497 7.497v17.77a7.5 7.5 0 0 1-7.497 7.497zm33.869 0a7.5 7.5 0 0 1-7.497-7.497V7.497A7.5 7.5 0 0 1 391.475 0a7.5 7.5 0 0 1 7.497 7.497v17.77a7.5 7.5 0 0 1-7.497 7.497z"/></g><path d="M113.028 23.65h285.944v464.328H113.028z" fill="#e2f6eb"/><path d="M378.42 23.65h20.552v464.328H378.42z" fill="#ceefdd"/><path d="M361.391 101.611v308.635c0 3.831-2.688 7.114-6.432 7.923-16.896 3.65-30.532 16.04-35.948 32.208-1.097 3.273-4.201 5.45-7.653 5.45H200.642c-3.452 0-6.556-2.177-7.653-5.45-5.416-16.168-19.053-28.558-35.948-32.208-3.744-.809-6.432-4.092-6.432-7.923V101.611c0-3.831 2.688-7.114 6.432-7.923 16.895-3.65 30.531-16.038 35.948-32.2 1.097-3.273 4.201-5.449 7.652-5.449h110.717c3.452 0 6.556 2.176 7.652 5.449 5.417 16.161 19.053 28.55 35.948 32.2 3.745.809 6.433 4.093 6.433 7.923z" fill="#aca6d6"/><path d="M361.389 101.61v308.638c0 3.83-2.688 7.115-6.428 7.923-16.898 3.648-30.531 16.039-35.948 32.209-1.102 3.275-4.204 5.447-7.65 5.447h-19c3.446 0 7.226-2.021 7.651-5.447 2.213-17.999 19.051-40.981 35.948-44.63 3.739-.809 6.428-4.093 6.428-7.923V112.585c0-3.83-2.688-7.115-6.428-7.923-16.898-3.648-34.079-25.468-35.948-43.174-.364-3.436-4.204-5.447-7.651-5.447h19c3.446 0 6.549 2.173 7.65 5.447 5.417 16.16 19.051 28.55 35.948 32.199 3.74.808 6.428 4.093 6.428 7.923z" fill="#978ecb"/><path d="M292.93 244.658c-1.598 0-2.184-2.115-.807-2.925 21.626-12.727 24.4-31.174 24.4-31.174 10.351-52.062-33.545-73.375-52.343-84.124-5.073-2.901-11.287-2.901-16.36 0-18.798 10.75-62.694 32.063-52.343 84.124 0 0 2.774 18.447 24.4 31.174 1.377.81.791 2.925-.807 2.925h-27.557c-2.157 0-3.906 1.749-3.906 3.906v135.139c0 2.157 1.749 3.906 3.906 3.906H256h64.486c2.157 0 3.906-1.749 3.906-3.906V248.564c0-2.157-1.749-3.906-3.906-3.906z" fill="#fdf6ec"/><path d="M292.929 244.655h-11.082c-4.175 0-6.004-5.254-2.745-7.862 15.079-12.067 17.212-26.236 17.212-26.236 10.005-50.35-30.733-71.937-50.421-83.034l1.93-1.091a16.45 16.45 0 0 1 16.352 0c18.798 10.753 62.7 32.067 52.351 84.125 0 0-2.779 18.454-24.407 31.178-1.373.808-.787 2.92.81 2.92zm31.461 3.911v135.132c0 2.163-1.748 3.911-3.901 3.911h-20.213c2.153 0 3.901-1.748 3.901-3.911V248.566c0-2.163-1.748-3.911-3.901-3.911h20.213c2.152 0 3.901 1.749 3.901 3.911z" fill="#fcead0"/><g fill="#827bbf"><use xlink:href="#C"/><use xlink:href="#C" x="27.961"/><use xlink:href="#C" x="55.923"/><use xlink:href="#C" x="83.884"/><use xlink:href="#D"/><use xlink:href="#D" x="27.961"/><use xlink:href="#D" x="55.923"/><use xlink:href="#D" x="83.884"/></g><defs ><path id="B" d="M120.525 512a7.5 7.5 0 0 1-7.497-7.497v-18.935a7.5 7.5 0 0 1 7.497-7.497 7.5 7.5 0 0 1 7.497 7.497v18.935a7.5 7.5 0 0 1-7.497 7.497z"/><path id="C" d="M214.058 438.144a7.5 7.5 0 0 1-7.5-7.5v-5.538a7.5 7.5 0 1 1 15 0v5.538a7.5 7.5 0 0 1-7.5 7.5z"/><path id="D" d="M214.058 94.262a7.5 7.5 0 0 1-7.5-7.5v-5.537a7.5 7.5 0 1 1 15 0v5.537a7.5 7.5 0 0 1-7.5 7.5z"/></defs></svg>