<svg xmlns="http://www.w3.org/2000/svg" height="512" viewBox="0 0 510 510" width="512"><path d="M103.271 172.061C77.731 184.031 60 209.98 60 240v135l30 15-60 15v30l45 12 60-12 10-99-10-156z" fill="#8ee26b"/><g fill="#26bfa6"><path d="M333.7 198.7a32.26 32.26 0 0 0-40.7-4.03L270 210h-66.541l-.001.014c-7.362-16.621-20.455-30.168-36.8-37.914L135 180v255l75 10.098 108.471-9.857C325.75 424.467 330 411.479 330 397.5c0-37.279-30.221-67.5-67.5-67.5H210v-60.001.001h90l30.24-22.68c15.757-11.822 17.304-34.776 3.46-48.62z"/><path d="m30 375v30h105l10-15-10-15z"/></g><path d="m135 375h90v30h-90z" fill="#149084"/><path d="m67.5 112.5c0 37.22 30.28 67.5 67.5 67.5l15-75-15-60c-37.22 0-67.5 30.28-67.5 67.5z" fill="#fed9b6"/><path d="m202.5 112.5c0-37.22-30.28-67.5-67.5-67.5v135c37.22 0 67.5-30.28 67.5-67.5z" fill="#fec3a8"/><path d="m0 435v30h135l10-15-10-15z" fill="#ffde46"/><path d="M135 435h375v30H135z" fill="#ffb64c"/></svg>