<svg xmlns="http://www.w3.org/2000/svg" width="512" height="512"><circle cx="256" cy="256" fill="#5bff82" r="256"/><path d="M73.988 415.823l70.841 70.841C178.451 502.898 216.162 512 256 512c141.385 0 256-114.615 256-256 0-39.253-8.846-76.436-24.636-109.683l-45.717-45.716z" fill="#3ad88c"/><path d="M451.242 199.302H337.917V85.977h72.371c22.618 0 40.954 18.336 40.954 40.954z" fill="#aaa"/><path d="M191.703 85.977c-15.308 0-29.294 6.726-39.955 16.076-12.662 11.114-20.656 26.366-20.656 44.534l-.068 218.813.068 60.622h157.016c33.477 0 60.69-27.146 60.69-60.622V146.588c0-33.477 27.134-60.611 60.611-60.611z" fill="#efefef"/><path d="M409.41 85.98c-33.48 0-60.61 27.13-60.61 60.61V365.4c0 33.4-27.09 60.49-60.45 60.62V85.98z" fill="#dbdbdb"/><path d="M175.938 346.543h128.965v31.524H175.938zm0-68.679h128.965v31.524H175.938zm0-68.68h128.965v31.524H175.938zm0-68.679h128.965v31.524H175.938z" fill="#969696"/><path d="M244.919 382.988v-54.187H58.758v54.187c0 23.768 19.267 43.035 43.035 43.035h186.161c-23.768 0-43.035-19.267-43.035-43.035z" fill="#dbdbdb"/><path d="m288.35 140.51h16.55v31.52h-16.55z" fill="#8c8c8c"/><path d="m287.95 426.02h-43.03v-43.03c0 23.77 19.27 43.03 43.03 43.03z" fill="#dbdbdb"/><path d="M288.35 346.54h16.55v31.53h-16.55zm0-68.68h16.55v31.53h-16.55zm0-68.68h16.55v31.53h-16.55z" fill="#8c8c8c"/></svg>