<svg xmlns="http://www.w3.org/2000/svg" height="512" viewBox="0 0 300 300" width="512"><circle cx="151.688" cy="118.409" fill="#e5efef" r="86"/><g fill="#4c241d"><path d="M241.702 96.202a3.99 3.99 0 0 1-2.828-1.172 4 4 0 0 1 0-5.656l11.791-11.793a4 4 0 0 1 5.656 5.656L244.53 95.03c-.781.782-1.805 1.172-2.828 1.172z"/><path d="M253.493 96.202a3.99 3.99 0 0 1-2.828-1.172l-11.791-11.793a4 4 0 0 1 5.656-5.656l11.791 11.793a4 4 0 0 1 0 5.656c-.781.782-1.805 1.172-2.828 1.172z"/><circle cx="241.689" cy="248.41" r="4"/><circle cx="57.689" cy="60.41" r="4"/></g><path d="M178.4 65.121l66.578 66.578c15.857 15.857 15.857 41.566 0 57.422L178.4 255.698c-15.857 15.857-41.566 15.857-57.422 0L54.4 189.121c-15.857-15.857-15.857-41.566 0-57.422l66.578-66.578c15.856-15.857 41.565-15.857 57.422 0z" fill="#f4aeab"/><path d="m149.688 64.409 26.241 32.649 41.642-4.531-4.531 41.641 32.648 26.241-32.648 26.241 4.531 41.642-41.642-4.531-26.241 32.648-26.241-32.648-41.641 4.531 4.531-41.642-32.649-26.241 32.649-26.241-4.531-41.641 41.641 4.531z" fill="#ffce56"/><path d="M149.688 260.409c-1.213 0-2.359-.549-3.117-1.494l-24.869-30.941-39.463 4.295c-1.203.137-2.404-.291-3.262-1.148a4 4 0 0 1-1.148-3.262l4.295-39.463-30.941-24.869c-.945-.758-1.494-1.904-1.494-3.117s.549-2.359 1.494-3.117l30.941-24.869-4.295-39.464c-.131-1.205.291-2.404 1.148-3.262s2.055-1.283 3.262-1.148l39.463 4.295 24.869-30.941c1.516-1.891 4.719-1.891 6.234 0l24.869 30.941 39.463-4.295a4 4 0 0 1 4.41 4.41l-4.295 39.463 30.941 24.869c.945.758 1.494 1.904 1.494 3.117s-.549 2.359-1.494 3.117l-30.941 24.869 4.295 39.463c.131 1.205-.291 2.404-1.148 3.262a3.99 3.99 0 0 1-3.262 1.148l-39.463-4.295-24.869 30.941c-.757.947-1.904 1.495-3.117 1.495zm-26.24-40.648c1.205 0 2.354.543 3.117 1.494l23.123 28.77 23.123-28.77c.855-1.062 2.172-1.609 3.551-1.471l36.693 3.992-3.992-36.693c-.148-1.357.406-2.697 1.471-3.551l28.77-23.123-28.77-23.123a4 4 0 0 1-1.471-3.551l3.992-36.693-36.693 3.992a3.98 3.98 0 0 1-3.551-1.471l-23.123-28.77-23.123 28.77c-.854 1.064-2.166 1.617-3.551 1.471l-36.693-3.992 3.992 36.693c.148 1.357-.406 2.697-1.471 3.551l-28.77 23.123 28.77 23.123a4 4 0 0 1 1.471 3.551l-3.992 36.693 36.693-3.992.434-.023z" fill="#4c241d"/><path d="m101.605 112.326 29.496 3.209 18.587-23.126 18.588 23.126 29.496-3.209-3.21 29.496 23.126 18.587-23.126 18.588 3.21 29.496-29.496-3.21-18.588 23.126-18.587-23.126-29.496 3.21 3.209-29.496-23.126-18.588 23.126-18.587z" fill="#fff"/><path d="M149.688 232.409c-1.211 0-2.359-.549-3.117-1.494l-17.217-21.418-27.316 2.973a4.01 4.01 0 0 1-3.262-1.148 4 4 0 0 1-1.148-3.262l2.973-27.316-21.418-17.217c-.945-.758-1.494-1.906-1.494-3.117s.549-2.359 1.494-3.117l21.418-17.217-2.973-27.316c-.131-1.205.291-2.404 1.148-3.262s2.043-1.279 3.262-1.148l27.316 2.973 17.217-21.418c1.516-1.891 4.719-1.891 6.234 0l17.217 21.418 27.316-2.973c1.205-.143 2.406.291 3.262 1.148a4 4 0 0 1 1.148 3.262l-2.973 27.316 21.418 17.217c.945.758 1.494 1.906 1.494 3.117s-.549 2.359-1.494 3.117l-21.418 17.217 2.973 27.316c.131 1.205-.291 2.404-1.148 3.262a3.99 3.99 0 0 1-3.262 1.148l-27.316-2.973-17.217 21.418c-.757.945-1.906 1.494-3.117 1.494zM131.1 201.284c1.205 0 2.354.543 3.117 1.494l15.471 19.246 15.471-19.246c.854-1.062 2.162-1.613 3.551-1.471l24.547 2.67-2.67-24.547a4 4 0 0 1 1.471-3.551l19.246-15.471-19.246-15.471a4 4 0 0 1-1.471-3.551l2.67-24.547-24.547 2.67c-1.389.148-2.697-.406-3.551-1.471l-15.471-19.246-15.471 19.246a3.96 3.96 0 0 1-3.551 1.471l-24.547-2.67 2.67 24.547a4 4 0 0 1-1.471 3.551l-19.246 15.471 19.246 15.471a4 4 0 0 1 1.471 3.551l-2.67 24.547 24.547-2.67.434-.023z" fill="#4c241d"/></svg>