<svg xmlns="http://www.w3.org/2000/svg" viewBox="0 0 463 463"><path d="M453.873 296.051l-55.404-57.117-94.186 60.717-69.686-27.918-144.053 6.646-23.77 25.078 63.742 136.441C161.601 454.991 195.929 463 231.5 463c61.836 0 119.971-24.08 163.695-67.805 28.053-28.054 47.969-62.056 58.678-99.145z" fill="#00a78e"/><path d="M231.5 0C169.664 0 111.529 24.08 67.805 67.805S0 169.664 0 231.5s24.08 119.971 67.805 163.695c18.572 18.572 39.762 33.559 62.713 44.703L66.775 303.457l23.77-25.078 144.053-6.646 69.686 27.918 94.186-60.717 55.404 57.117A232.42 232.42 0 0 0 463 231.5c0-61.836-24.08-119.971-67.805-163.695S293.336 0 231.5 0z" fill="#00cb75"/><path d="M397.886 238.967a7.5 7.5 0 0 0-6.856-4.46h-32.162c-3.413-9.876-12.071-31.572-28.48-53.45-29.019-38.692-68.521-59.229-114.27-59.44-6.534-1.114-56.24-8.741-81.407 12.237-9.696 8.083-14.613 19.147-14.613 32.886 0 20.927 28.343 64.929 43.219 86.583H108.78c-2.546 0-7.078-2.654-11.076-4.997-6.04-3.538-12.887-7.548-20.285-7.548-18.66 0-19.558 25.105-20.04 38.594-.161 4.508-1.549 8.055-3.018 11.81-1.602 4.096-3.259 8.331-3.259 13.547 0 5.921 3.306 11.342 9.07 14.873 5.603 3.432 13.516 5.172 23.519 5.172a7.5 7.5 0 1 0 0-15 63.11 63.11 0 0 1-3.813-.118c3.929-7.999 9.833-13.734 12.735-16.243h12.241l2.743 24.689a7.5 7.5 0 0 0 7.454 6.672H221.68c5.604 0 10.723-2.208 14.804-6.385 6.74-6.899 9.872-18.609 11.318-28.744 17.999 21.989 30.988 32.73 31.86 33.441a7.5 7.5 0 0 0 4.739 1.688c.43 0 .862-.037 1.292-.112 2.145-.375 4.02-1.663 5.139-3.529l.003-.005c3.584 2.37 7.781 3.646 12.176 3.646h94.291a7.5 7.5 0 0 0 7.214-5.45c.463-1.628 11.122-40.312-6.63-80.357zM89.963 278.412c-1.573 0-3.106.495-4.383 1.414-.55.396-12.341 9.011-19.386 23.664.261-2.028 1.104-4.204 2.137-6.842 1.687-4.313 3.786-9.679 4.038-16.739.839-23.452 4.621-24.129 5.05-24.129 3.329 0 8.31 2.917 12.704 5.491 3.826 2.241 7.739 4.526 11.813 5.866l1.253 11.276H89.963zm135.785 29.499c-1.276 1.305-2.493 1.862-4.068 1.862h-99.915l-4.605-41.45h60.615a7.5 7.5 0 0 0 6.684-4.097c1.281-2.514 1.041-5.533-.618-7.814-18.846-25.913-48.743-73.171-48.743-89.672 0-9.199 3.011-16.184 9.204-21.353 15.769-13.163 49.099-11.799 65.282-9.604 4.089 15.278 3.347 31.245 1.607 43.328l-1.677-3.296a7.5 7.5 0 0 0-10.118-3.18c-3.672 1.916-5.096 6.445-3.181 10.118.114.219 10.706 20.611 17.003 38.75-1.605 1.307-2.58 2.165-2.798 2.359a7.5 7.5 0 0 0-1.492 9.376c8.591 14.745 17.1 27.55 25.087 38.527.127 10.9-1.955 29.695-8.267 36.146zm-.597-76.712c10.035-7.741 34.517-24.5 59.581-25.606a7.5 7.5 0 0 0 7.162-7.823 7.49 7.49 0 0 0-7.824-7.162c-22.815 1.007-44.397 12.455-58.242 21.65-1.315-3.528-2.728-7.052-4.156-10.444 2.322-7.818 9.653-36.164 3.61-64.85 37.192 2.635 68.383 20.324 92.816 52.708 16.167 21.427 24.386 43.181 27.063 51.16-8.988 10.495-37.414 13.952-56.278 11.821l-10.982-15.087a7.5 7.5 0 0 0-12.088 8.88l28.483 39.756-11.621 19.368c-10.795-10.391-33.669-34.713-57.524-74.371zm82.452 47.865l-7.593-10.831.457.004a139.31 139.31 0 0 0 12.833-.591c-.487 1.101-1.098 2.123-1.802 3.299-1.315 2.194-2.799 4.685-3.895 8.119zm-4.592 30.709a7.08 7.08 0 0 1-4.434-1.548l5.125-8.541h30.065c1.992 1.085 5.938 4.989 10.358 10.089zm31.568-25.089h-12.981c.591-2.392 1.577-4.043 2.765-6.026 1.921-3.206 4.229-7.076 4.945-13.612 10.385-2.512 19.97-6.723 26.27-13.384 10.032 25.667 10.404 47.773 9.827 58.111h-1.961c-18.85-25.075-26.341-25.089-28.865-25.089zm56.672 25.089h-10.792c.604-11.732-.039-34.071-9.658-60.267h15.218c9.715 25.244 7.117 49.701 5.232 60.267z" fill="#333"/><path d="M380.714 301.045c-.252-9.51-.87-15.902-2.35-24.282-1.159-6.564-3.706-16.587-5.74-22.595l-1.492-4.406h7.44 7.44l1.536 4.781c1.934 6.018 3.174 11.484 4.235 18.657 1.105 7.476 1.2 23.291.183 30.564-.36 2.578-.746 4.983-.858 5.344-.179.582-.766.656-5.182.656h-4.98z" fill="#f4e3d7"/><path d="M271.508 293.021c-5.621-6.271-14.436-16.926-19.588-23.676-9.351-12.25-25.47-36.194-25.445-37.795.007-.465 2.991-2.82 6.629-5.233 16.681-11.062 31.695-17.393 46.321-19.532 10.52-1.538 13.088-3.41 12.595-9.183-.229-2.675-1.18-4.447-3.19-5.942-2.683-1.995-3.43-2.051-11.795-.88-14.197 1.986-32.785 9.098-46.64 17.844-2.274 1.435-4.25 2.456-4.392 2.268s-1-2.252-1.908-4.587c-1.518-3.906-1.492-4.965.322-13.259 2.969-13.572 4.173-30.651 3.061-43.425-.53-6.092-.735-11.305-.455-11.585 1.04-1.04 18.053 2.231 27.267 5.242 5.24 1.712 13.413 5.133 18.162 7.602 28.443 14.787 54.271 45.306 68.63 81.094l3.489 8.695-2.573 2.152c-6.656 5.568-23.738 9.531-41.336 9.589l-11.184.037-6.556-9.016c-6.317-8.687-6.709-9.016-10.748-9.016-5.218 0-9.095 4.096-8.185 8.646.313 1.565 5.018 8.971 10.456 16.458l14.473 20.178 4.586 6.566-5.484 9.079c-3.016 4.994-5.666 9.079-5.889 9.079s-5.003-5.131-10.624-11.403zm85.047 7.275c-4.436-5.187-10.306-10.915-13.044-12.729-4.433-2.936-5.828-3.297-12.751-3.297-4.275 0-7.767-.358-7.76-.796s1.439-3.607 3.182-7.044 3.169-7.321 3.169-8.633c0-1.85.773-2.53 3.447-3.033 4.777-.898 15.504-6.118 19.491-9.483l3.315-2.798 3.288 11.385c1.809 6.262 3.754 14.488 4.322 18.28 1.332 8.885 2.653 27.578 1.949 27.578-.298 0-4.172-4.244-8.608-9.431z" fill="#fea"/><path d="M122.043 306.28c-.913-5.57-3.774-32.273-3.774-35.218v-2.702h31.744 31.744l2.198-2.795c1.209-1.537 2.198-3.596 2.198-4.576s-5.937-10.697-13.193-21.594c-21.234-31.889-34.361-56.531-36.716-68.926-1.178-6.199.321-14.111 3.595-18.969 8.033-11.92 29.556-18.025 57.412-16.284l12.054.753 1.152 6.617c.634 3.64 1.152 12.747 1.152 20.239v13.622l-2.455-2.306c-2.935-2.757-9.324-3.105-11.787-.641-3.628 3.628-3.159 6.292 3.67 20.841 3.637 7.748 7.716 17.013 9.064 20.587l2.452 6.499-2.594 2.437c-1.468 1.379-2.594 3.64-2.594 5.209 0 2.958 7.731 16.24 19.378 33.294l7.136 10.449-1.081 9.705c-1.454 13.06-3.737 20.523-7.395 24.181l-3.025 3.025h-49.887-49.887z" fill="#2ca02c"/><path d="M300.378 308.51c-.378-.378.346-2.526 1.61-4.773l2.297-4.086h14.434 14.434l4.685 4.773 4.685 4.773h-20.728c-11.4 0-21.037-.309-21.415-.687zM70.425 293.286c.787-2.754 1.873-10.088 3.763-25.411 1.451-11.761 2.551-12.879 9.281-9.434 18.303 9.37 18.358 9.407 18.373 12.373.008 1.567.302 3.923.654 5.235.624 2.327.432 2.387-7.728 2.387-7.823 0-8.632.218-12.426 3.345-2.232 1.84-5.997 5.778-8.367 8.751-3.124 3.92-4.1 4.677-3.551 2.754z" fill="#ffe6d5"/></svg>