<svg xmlns="http://www.w3.org/2000/svg" viewBox="0 0 463 463"><path d="M438.726 243.069a9.32 9.32 0 0 0-8.52-5.542h-39.967c-4.241-12.273-15.001-39.234-35.392-66.422-36.062-48.082-85.15-73.603-142.002-73.866-8.12-1.384-69.889-10.862-101.164 15.207-12.049 10.045-18.159 23.794-18.159 40.867 0 26.006 35.222 80.687 53.708 107.596H79.457c-3.164 0-8.796-3.298-13.764-6.21-7.506-4.397-16.015-9.38-25.208-9.38-23.189 0-24.305 31.198-24.904 47.96-.2 5.602-1.925 10.01-3.75 14.676-1.991 5.09-4.05 10.353-4.05 16.835 0 7.358 4.108 14.095 11.271 18.483 6.963 4.265 16.796 6.427 29.227 6.427a9.32 9.32 0 1 0 0-18.64 78.426 78.426 0 0 1-4.738-.147c4.883-9.94 12.219-17.067 15.826-20.185h15.212l3.409 30.681a9.32 9.32 0 0 0 9.263 8.291h132.507c6.964 0 13.325-2.744 18.397-7.935 8.376-8.573 12.268-23.125 14.065-35.72 22.367 27.326 38.509 40.673 39.592 41.557a9.32 9.32 0 0 0 5.889 2.098c.534 0 1.071-.046 1.606-.139 2.666-.466 4.996-2.067 6.386-4.385l.004-.006c4.454 2.945 9.669 4.531 15.131 4.531h117.175a9.32 9.32 0 0 0 8.965-6.773c.575-2.023 13.821-50.095-8.239-99.859zM56.073 292.087c-1.955 0-3.86.615-5.447 1.757-.683.492-15.336 11.198-24.091 29.407.324-2.52 1.372-5.224 2.656-8.502 2.096-5.36 4.705-12.028 5.018-20.801 1.043-29.144 5.742-29.985 6.276-29.985 4.137 0 10.327 3.625 15.787 6.824 4.755 2.785 9.617 5.624 14.68 7.29l1.557 14.013H56.073zm168.739 36.658c-1.586 1.622-3.098 2.314-5.055 2.314H95.593l-5.723-51.51h75.326a9.32 9.32 0 0 0 8.306-5.091c1.592-3.124 1.294-6.876-.768-9.71-23.42-32.202-60.572-90.929-60.572-111.435 0-11.432 3.742-20.112 11.438-26.535 19.596-16.358 61.015-14.663 81.125-11.935 5.081 18.986 4.159 38.828 1.997 53.843l-2.084-4.096a9.32 9.32 0 0 0-12.574-3.952c-4.563 2.381-6.333 8.009-3.953 12.574.142.272 13.304 25.613 21.129 48.154a111.63 111.63 0 0 0-3.477 2.932 9.32 9.32 0 0 0-1.854 11.651c10.676 18.323 21.25 34.236 31.175 47.877.158 13.545-2.429 36.902-10.273 44.918zm-.742-95.329c12.47-9.62 42.894-30.446 74.041-31.82a9.32 9.32 0 0 0 8.9-9.722 9.308 9.308 0 0 0-9.723-8.9c-28.352 1.251-55.172 15.478-72.377 26.904-1.634-4.384-3.39-8.763-5.165-12.979 2.886-9.715 11.996-44.941 4.486-80.589 46.218 3.274 84.979 25.256 115.342 65.5 20.091 26.627 30.304 53.661 33.631 63.576-11.169 13.042-46.494 17.338-69.936 14.69l-13.647-18.748a9.32 9.32 0 0 0-15.022 11.035l35.396 49.404-14.441 24.068c-13.415-12.913-41.84-43.138-71.485-92.42zm102.462 59.481l-9.436-13.46.568.005a173.119 173.119 0 0 0 15.947-.734c-.605 1.368-1.364 2.638-2.239 4.1-1.634 2.726-3.478 5.822-4.84 10.089zm-5.706 38.162a8.798 8.798 0 0 1-5.51-1.924l6.369-10.614h37.362c2.475 1.348 7.379 6.2 12.872 12.538zm39.229-31.178h-16.131c.734-2.973 1.96-5.024 3.436-7.488 2.387-3.984 5.255-8.793 6.145-16.916 12.905-3.122 24.817-8.355 32.645-16.632 12.467 31.896 12.929 59.367 12.212 72.214h-2.437c-23.425-31.16-32.734-31.178-35.87-31.178zm70.426 31.178H417.07c.751-14.579-.048-42.34-12.002-74.893h18.911c12.073 31.37 8.844 61.763 6.502 74.893z" fill="#333"/><path d="M417.387 320.213c-.313-11.818-1.081-19.761-2.92-30.175-1.44-8.157-4.605-20.613-7.133-28.079l-1.854-5.475h9.246 9.246l1.909 5.941c2.403 7.479 3.944 14.271 5.263 23.185 1.373 9.29 1.491 28.944.227 37.982-.447 3.204-.927 6.192-1.066 6.641-.222.723-.952.815-6.44.815h-6.189z" fill="#d38d5f"/><path d="M387.364 319.282c-5.513-6.446-12.807-13.564-16.21-15.818-5.509-3.649-7.242-4.097-15.846-4.097-5.312 0-9.652-.445-9.643-.989s1.788-4.482 3.954-8.754 3.938-9.098 3.938-10.728c0-2.299.961-3.144 4.284-3.769 5.936-1.116 19.267-7.603 24.221-11.784l4.12-3.477 4.086 14.148c2.248 7.782 4.665 18.004 5.371 22.716 1.655 11.041 3.297 34.271 2.422 34.271-.37 0-5.185-5.274-10.697-11.72z" fill="#fff6d5"/><path d="M281.677 310.242c-6.985-7.793-17.939-21.034-24.342-29.422-11.62-15.223-31.651-44.978-31.62-46.968.009-.578 3.717-3.504 8.238-6.503 20.729-13.747 39.387-21.614 57.563-24.272 13.073-1.911 16.264-4.238 15.652-11.412-.285-3.324-1.466-5.526-3.964-7.384-3.334-2.479-4.262-2.549-14.658-1.094-17.642 2.468-40.742 11.306-57.959 22.175-2.826 1.783-5.281 3.052-5.458 2.818s-1.243-2.799-2.371-5.7c-1.886-4.854-1.854-6.17.4-16.477 3.69-16.866 5.186-38.09 3.804-53.964-.659-7.57-.913-14.049-.565-14.397 1.292-1.292 22.434 2.772 33.884 6.514 6.512 2.127 16.668 6.379 22.57 9.447 35.346 18.376 67.442 56.301 85.286 100.775l4.336 10.805-3.197 2.674c-8.271 6.919-29.499 11.844-51.368 11.916l-13.898.046-8.147-11.204c-7.85-10.795-8.337-11.204-13.356-11.204-6.484 0-11.302 5.09-10.171 10.744.389 1.945 6.236 11.148 12.994 20.452l17.985 25.075 5.699 8.16-6.815 11.282c-3.748 6.206-7.041 11.282-7.318 11.282s-6.217-6.376-13.202-14.17z" fill="#e9c6af"/><path d="M95.938 326.718c-1.135-6.922-4.69-40.105-4.69-43.765v-3.358h39.448 39.448l2.731-3.473c1.502-1.91 2.731-4.469 2.731-5.687s-7.378-13.293-16.395-26.835c-26.387-39.628-42.7-70.251-45.627-85.654-1.464-7.703.399-17.536 4.467-23.573 9.983-14.813 36.729-22.4 71.345-20.236l14.979.936 1.432 8.223c.788 4.523 1.432 15.841 1.432 25.151v16.928l-3.051-2.866c-3.647-3.426-11.587-3.859-14.648-.797-4.508 4.508-3.926 7.819 4.561 25.899 4.52 9.628 9.589 21.142 11.264 25.583l3.047 8.076-3.224 3.028c-1.824 1.714-3.224 4.523-3.224 6.473 0 3.676 9.607 20.181 24.081 41.374l8.868 12.985-1.343 12.06c-1.807 16.23-4.644 25.504-9.19 30.05l-3.759 3.759H158.63 96.636z" fill="#2ca02c"/><path d="M317.554 329.49c-.47-.47.43-3.139 2.001-5.931l2.854-5.078h17.937 17.937l5.822 5.931 5.822 5.931h-25.759c-14.167 0-26.142-.384-26.612-.854zM31.793 310.571c.978-3.422 2.328-12.536 4.676-31.578 1.803-14.615 3.17-16.005 11.533-11.724 22.745 11.644 22.813 11.69 22.832 15.376.01 1.947.375 4.875.813 6.505.775 2.892.537 2.966-9.604 2.966-9.722 0-10.727.271-15.442 4.157-2.774 2.287-7.452 7.18-10.398 10.875-3.882 4.871-5.095 5.812-4.413 3.422z" fill="#ffe6d5"/></svg>